<svg width="203" height="27" viewBox="0 0 203 27" fill="none" xmlns="http://www.w3.org/2000/svg">
<g filter="url(#filter0_d_91:361)">
<path d="M12.7456 12.096C15.519 12.3093 17.5563 12.9493 18.8576 14.016C20.159 15.0827 20.8096 16.3413 20.8096 17.792C20.8096 19.776 20.031 21.312 18.4736 22.4C16.9163 23.4667 14.751 24 11.9776 24C11.359 24 10.8363 23.9893 10.4096 23.968C9.00163 23.9253 7.62563 23.904 6.28163 23.904C4.08429 23.904 2.44163 23.936 1.35363 24V23.36C2.05763 23.3173 2.56963 23.232 2.88963 23.104C3.23096 22.976 3.45496 22.7307 3.56163 22.368C3.68963 22.0053 3.75363 21.4187 3.75363 20.608V4.736C3.75363 3.92533 3.68963 3.33867 3.56163 2.976C3.45496 2.61333 3.23096 2.368 2.88963 2.24C2.56963 2.112 2.05763 2.02667 1.35363 1.984V1.344C2.44163 1.408 4.06296 1.44 6.21763 1.44L9.76963 1.408C10.1963 1.38667 10.687 1.376 11.2416 1.376C13.8016 1.376 15.7536 1.83467 17.0976 2.752C18.463 3.66933 19.1456 4.88533 19.1456 6.4C19.1456 7.63733 18.6016 8.78933 17.5136 9.856C16.447 10.9227 14.8576 11.648 12.7456 12.032V12.096ZM10.8256 1.984C10.2496 1.984 9.82296 2.05867 9.54563 2.208C9.28963 2.35733 9.10829 2.624 9.00163 3.008C8.89496 3.392 8.84163 3.968 8.84163 4.736V11.968H10.2176C11.6043 11.968 12.575 11.4987 13.1296 10.56C13.6843 9.6 13.9616 8.33067 13.9616 6.752C13.9616 5.152 13.7056 3.95733 13.1936 3.168C12.703 2.37867 11.9136 1.984 10.8256 1.984ZM11.0496 23.264C14.015 23.264 15.4976 21.3973 15.4976 17.664C15.4976 15.9787 15.071 14.6987 14.2176 13.824C13.3643 12.9493 12.0203 12.512 10.1856 12.512H8.84163V20.608C8.84163 21.376 8.89496 21.9413 9.00163 22.304C9.10829 22.6667 9.31096 22.9227 9.60963 23.072C9.92963 23.2 10.4096 23.264 11.0496 23.264ZM34.4696 0.895998C36.731 0.895998 38.7043 1.35467 40.3896 2.272C42.0963 3.18933 43.419 4.52267 44.3576 6.272C45.2963 8 45.7656 10.0693 45.7656 12.48C45.7656 14.8267 45.2856 16.9067 44.3256 18.72C43.3656 20.5333 42.0216 21.9413 40.2936 22.944C38.587 23.9467 36.635 24.448 34.4376 24.448C32.1763 24.448 30.1923 23.9893 28.4856 23.072C26.8003 22.1547 25.4883 20.832 24.5496 19.104C23.611 17.3547 23.1416 15.2747 23.1416 12.864C23.1416 10.5173 23.6216 8.43733 24.5816 6.624C25.5416 4.81067 26.875 3.40267 28.5816 2.4C30.3096 1.39733 32.2723 0.895998 34.4696 0.895998ZM34.3416 1.472C33.1683 1.472 32.1336 1.952 31.2376 2.912C30.3416 3.85067 29.6483 5.17333 29.1576 6.88C28.6883 8.58667 28.4536 10.5387 28.4536 12.736C28.4536 14.9547 28.7203 16.9067 29.2536 18.592C29.8083 20.2773 30.5443 21.5787 31.4616 22.496C32.4003 23.4133 33.435 23.872 34.5656 23.872C35.739 23.872 36.7736 23.4027 37.6696 22.464C38.5656 21.504 39.2483 20.1707 39.7176 18.464C40.2083 16.7573 40.4536 14.8053 40.4536 12.608C40.4536 10.3893 40.1763 8.43733 39.6216 6.752C39.0883 5.06667 38.3523 3.76533 37.4136 2.848C36.4963 1.93067 35.4723 1.472 34.3416 1.472ZM59.8446 0.895998C62.106 0.895998 64.0793 1.35467 65.7646 2.272C67.4713 3.18933 68.794 4.52267 69.7326 6.272C70.6713 8 71.1406 10.0693 71.1406 12.48C71.1406 14.8267 70.6606 16.9067 69.7006 18.72C68.7406 20.5333 67.3966 21.9413 65.6686 22.944C63.962 23.9467 62.01 24.448 59.8126 24.448C57.5513 24.448 55.5673 23.9893 53.8606 23.072C52.1753 22.1547 50.8633 20.832 49.9246 19.104C48.986 17.3547 48.5166 15.2747 48.5166 12.864C48.5166 10.5173 48.9966 8.43733 49.9566 6.624C50.9166 4.81067 52.25 3.40267 53.9566 2.4C55.6846 1.39733 57.6473 0.895998 59.8446 0.895998ZM59.7166 1.472C58.5433 1.472 57.5086 1.952 56.6126 2.912C55.7166 3.85067 55.0233 5.17333 54.5326 6.88C54.0633 8.58667 53.8286 10.5387 53.8286 12.736C53.8286 14.9547 54.0953 16.9067 54.6286 18.592C55.1833 20.2773 55.9193 21.5787 56.8366 22.496C57.7753 23.4133 58.81 23.872 59.9406 23.872C61.114 23.872 62.1486 23.4027 63.0446 22.464C63.9406 21.504 64.6233 20.1707 65.0926 18.464C65.5833 16.7573 65.8286 14.8053 65.8286 12.608C65.8286 10.3893 65.5513 8.43733 64.9966 6.752C64.4633 5.06667 63.7273 3.76533 62.7886 2.848C61.8713 1.93067 60.8473 1.472 59.7166 1.472ZM93.1296 21.408C93.4496 21.8987 93.7803 22.2933 94.1216 22.592C94.463 22.8907 94.9003 23.1467 95.4336 23.36V24C93.9403 23.936 92.2763 23.904 90.4416 23.904C89.0336 23.904 87.679 23.936 86.3776 24V23.36C86.975 23.3173 87.4016 23.2533 87.6576 23.168C87.935 23.0827 88.0736 22.9333 88.0736 22.72C88.0736 22.5493 87.9563 22.2827 87.7216 21.92L83.0816 14.4C82.655 13.7173 82.2923 13.2587 81.9936 13.024C81.7163 12.7893 81.3323 12.6507 80.8416 12.608V20.608C80.8416 21.4187 80.895 22.0053 81.0016 22.368C81.1296 22.7307 81.3536 22.976 81.6736 23.104C81.9936 23.232 82.5163 23.3173 83.2416 23.36V24C82.0896 23.936 80.479 23.904 78.4096 23.904C76.127 23.904 74.4416 23.936 73.3536 24V23.36C74.0576 23.3173 74.5696 23.232 74.8896 23.104C75.231 22.976 75.455 22.7307 75.5616 22.368C75.6896 22.0053 75.7536 21.4187 75.7536 20.608V4.736C75.7536 3.92533 75.6896 3.33867 75.5616 2.976C75.455 2.61333 75.231 2.368 74.8896 2.24C74.5696 2.112 74.0576 2.02667 73.3536 1.984V1.344C74.4416 1.408 76.127 1.44 78.4096 1.44C80.479 1.44 82.0896 1.408 83.2416 1.344V1.984C82.5163 2.02667 81.9936 2.112 81.6736 2.24C81.3536 2.368 81.1296 2.61333 81.0016 2.976C80.895 3.33867 80.8416 3.92533 80.8416 4.736V11.936C81.695 11.8933 82.4736 11.6373 83.1776 11.168C83.8816 10.6987 84.6816 9.952 85.5776 8.928L87.4656 6.656C88.447 5.52533 88.9376 4.53333 88.9376 3.68C88.9376 3.168 88.7243 2.76267 88.2976 2.464C87.8923 2.16533 87.3163 1.99467 86.5696 1.952V1.344C88.127 1.408 89.7056 1.44 91.3056 1.44C92.543 1.44 93.5456 1.408 94.3136 1.344V1.952C92.607 2.35733 91.0603 3.38133 89.6736 5.024L85.6736 9.792L93.1296 21.408ZM104.197 0.927999C105.307 0.927999 106.192 1.03467 106.853 1.248C107.515 1.46133 108.187 1.77067 108.869 2.176C109.104 2.304 109.307 2.41066 109.477 2.496C109.669 2.58133 109.829 2.624 109.957 2.624C110.149 2.624 110.299 2.51733 110.405 2.304C110.512 2.06933 110.597 1.70667 110.661 1.216H111.397C111.291 2.64533 111.237 5.07733 111.237 8.512H110.501C110.416 7.36 110.149 6.26133 109.701 5.216C109.275 4.17067 108.656 3.328 107.845 2.688C107.056 2.02667 106.128 1.696 105.061 1.696C104.016 1.696 103.163 1.99467 102.501 2.592C101.861 3.168 101.541 3.95733 101.541 4.96C101.541 5.70667 101.701 6.35733 102.021 6.912C102.341 7.46667 102.789 7.97867 103.365 8.448C103.941 8.896 104.827 9.51467 106.021 10.304L107.045 11.008C108.304 11.84 109.296 12.5653 110.021 13.184C110.747 13.8027 111.333 14.528 111.781 15.36C112.251 16.1707 112.485 17.12 112.485 18.208C112.485 19.5733 112.133 20.7253 111.429 21.664C110.725 22.5813 109.765 23.2747 108.549 23.744C107.355 24.2133 106.021 24.448 104.549 24.448C103.355 24.448 102.363 24.3413 101.573 24.128C100.784 23.9147 100.059 23.6267 99.3974 23.264C98.928 22.9653 98.5654 22.816 98.3094 22.816C98.1174 22.816 97.968 22.9333 97.8614 23.168C97.7547 23.3813 97.6694 23.7333 97.6054 24.224H96.8694C96.9547 22.88 96.9974 20 96.9974 15.584H97.7334C97.8827 17.9733 98.416 19.9147 99.3334 21.408C100.251 22.88 101.659 23.616 103.557 23.616C104.709 23.616 105.659 23.3067 106.405 22.688C107.152 22.0693 107.525 21.184 107.525 20.032C107.525 18.8373 107.141 17.8133 106.373 16.96C105.605 16.1067 104.389 15.1467 102.725 14.08C101.445 13.248 100.421 12.5227 99.6534 11.904C98.8854 11.2853 98.256 10.56 97.7654 9.728C97.2747 8.87467 97.0294 7.89333 97.0294 6.784C97.0294 5.504 97.3494 4.42666 97.9894 3.552C98.6507 2.656 99.5254 1.99467 100.613 1.568C101.701 1.14133 102.896 0.927999 104.197 0.927999ZM134.341 1.344C134.192 3.37067 134.117 5.184 134.117 6.784C134.117 7.78667 134.149 8.59733 134.213 9.216H133.477C132.965 6.592 132.261 4.74667 131.365 3.68C130.49 2.61333 129.285 2.08 127.749 2.08H127.013V20.352C127.013 21.248 127.098 21.8987 127.269 22.304C127.461 22.7093 127.781 22.9867 128.229 23.136C128.698 23.264 129.434 23.3387 130.437 23.36V24C127.749 23.936 125.722 23.904 124.357 23.904C123.013 23.904 121.061 23.936 118.501 24V23.36C119.504 23.3387 120.229 23.264 120.677 23.136C121.146 22.9867 121.466 22.7093 121.637 22.304C121.829 21.8987 121.925 21.248 121.925 20.352V2.08H121.221C120.197 2.08 119.322 2.304 118.597 2.752C117.893 3.2 117.285 3.94667 116.773 4.992C116.261 6.016 115.824 7.424 115.461 9.216H114.725C114.789 8.59733 114.821 7.78667 114.821 6.784C114.821 5.184 114.746 3.37067 114.597 1.344C116.538 1.408 119.834 1.44 124.485 1.44C129.136 1.44 132.421 1.408 134.341 1.344ZM147.876 0.895998C150.137 0.895998 152.111 1.35467 153.796 2.272C155.503 3.18933 156.825 4.52267 157.764 6.272C158.703 8 159.172 10.0693 159.172 12.48C159.172 14.8267 158.692 16.9067 157.732 18.72C156.772 20.5333 155.428 21.9413 153.7 22.944C151.993 23.9467 150.041 24.448 147.844 24.448C145.583 24.448 143.599 23.9893 141.892 23.072C140.207 22.1547 138.895 20.832 137.956 19.104C137.017 17.3547 136.548 15.2747 136.548 12.864C136.548 10.5173 137.028 8.43733 137.988 6.624C138.948 4.81067 140.281 3.40267 141.988 2.4C143.716 1.39733 145.679 0.895998 147.876 0.895998ZM147.748 1.472C146.575 1.472 145.54 1.952 144.644 2.912C143.748 3.85067 143.055 5.17333 142.564 6.88C142.095 8.58667 141.86 10.5387 141.86 12.736C141.86 14.9547 142.127 16.9067 142.66 18.592C143.215 20.2773 143.951 21.5787 144.868 22.496C145.807 23.4133 146.841 23.872 147.972 23.872C149.145 23.872 150.18 23.4027 151.076 22.464C151.972 21.504 152.655 20.1707 153.124 18.464C153.615 16.7573 153.86 14.8053 153.86 12.608C153.86 10.3893 153.583 8.43733 153.028 6.752C152.495 5.06667 151.759 3.76533 150.82 2.848C149.903 1.93067 148.879 1.472 147.748 1.472ZM183.081 22.592C182.505 23.2533 181.886 23.7227 181.225 24C180.564 24.2987 179.764 24.448 178.825 24.448C177.588 24.448 176.606 24.192 175.881 23.68C175.177 23.1467 174.718 22.2507 174.505 20.992L173.929 17.792C173.652 16.2347 173.31 15.0933 172.905 14.368C172.521 13.6213 171.87 13.248 170.953 13.248H168.873V20.608C168.873 21.4187 168.926 22.0053 169.033 22.368C169.161 22.7307 169.385 22.976 169.705 23.104C170.025 23.232 170.548 23.3173 171.273 23.36V24C170.121 23.936 168.51 23.904 166.441 23.904C164.158 23.904 162.473 23.936 161.385 24V23.36C162.089 23.3173 162.601 23.232 162.921 23.104C163.262 22.976 163.486 22.7307 163.593 22.368C163.721 22.0053 163.785 21.4187 163.785 20.608V4.736C163.785 3.92533 163.721 3.33867 163.593 2.976C163.486 2.61333 163.262 2.368 162.921 2.24C162.601 2.112 162.089 2.02667 161.385 1.984V1.344C162.473 1.408 164.094 1.44 166.249 1.44L169.801 1.408C170.228 1.38667 170.718 1.376 171.273 1.376C174.217 1.376 176.425 1.856 177.897 2.816C179.39 3.776 180.137 5.152 180.137 6.944C180.137 8.45867 179.582 9.792 178.473 10.944C177.364 12.096 175.529 12.8213 172.969 13.12C174.889 13.2907 176.318 13.7067 177.257 14.368C178.196 15.0293 178.804 16.0213 179.081 17.344L179.817 20.64C179.988 21.4933 180.18 22.0907 180.393 22.432C180.628 22.7733 180.948 22.944 181.353 22.944C181.609 22.9227 181.822 22.8587 181.993 22.752C182.185 22.6453 182.398 22.464 182.633 22.208L183.081 22.592ZM170.857 1.984C170.281 1.984 169.854 2.05867 169.577 2.208C169.321 2.35733 169.14 2.624 169.033 3.008C168.926 3.392 168.873 3.968 168.873 4.736V12.608H170.249C171.998 12.608 173.193 12.1493 173.833 11.232C174.494 10.2933 174.825 8.98133 174.825 7.296C174.825 5.54667 174.516 4.224 173.897 3.328C173.278 2.432 172.265 1.984 170.857 1.984ZM201.077 19.136C201.077 21.0987 201.152 22.72 201.301 24C199.85 23.936 197.408 23.904 193.973 23.904C189.322 23.904 185.845 23.936 183.541 24V23.36C184.245 23.3173 184.757 23.232 185.077 23.104C185.418 22.976 185.642 22.7307 185.749 22.368C185.877 22.0053 185.941 21.4187 185.941 20.608V4.736C185.941 3.92533 185.877 3.33867 185.749 2.976C185.642 2.61333 185.418 2.368 185.077 2.24C184.757 2.112 184.245 2.02667 183.541 1.984V1.344C185.845 1.408 189.322 1.44 193.973 1.44C197.109 1.44 199.338 1.408 200.661 1.344C200.512 3.11467 200.437 4.69333 200.437 6.08C200.437 7.01867 200.469 7.744 200.533 8.256H199.797C199.477 5.97333 198.901 4.37333 198.069 3.456C197.237 2.53867 196.064 2.08 194.549 2.08H193.237C192.576 2.08 192.096 2.13333 191.797 2.24C191.498 2.34667 191.296 2.56 191.189 2.88C191.082 3.17867 191.029 3.66933 191.029 4.352V12.288H192.053C193.184 12.288 194.037 11.872 194.613 11.04C195.21 10.208 195.626 9.216 195.861 8.064H196.597C196.533 8.96 196.501 9.96267 196.501 11.072V12.608C196.501 13.696 196.565 15.2107 196.693 17.152H195.957C195.509 14.336 194.208 12.928 192.053 12.928H191.029V20.992C191.029 21.6747 191.082 22.176 191.189 22.496C191.296 22.7947 191.498 22.9973 191.797 23.104C192.096 23.2107 192.576 23.264 193.237 23.264H194.805C196.32 23.264 197.536 22.752 198.453 21.728C199.392 20.6827 200.053 18.9227 200.437 16.448H201.173C201.109 17.152 201.077 18.048 201.077 19.136Z" fill="#EFECEA"/>
</g>
<defs>
<filter id="filter0_d_91:361" x="0.353638" y="0.895996" width="201.948" height="25.552" filterUnits="userSpaceOnUse" color-interpolation-filters="sRGB">
<feFlood flood-opacity="0" result="BackgroundImageFix"/>
<feColorMatrix in="SourceAlpha" type="matrix" values="0 0 0 0 0 0 0 0 0 0 0 0 0 0 0 0 0 0 127 0" result="hardAlpha"/>
<feOffset dy="1"/>
<feGaussianBlur stdDeviation="0.5"/>
<feComposite in2="hardAlpha" operator="out"/>
<feColorMatrix type="matrix" values="0 0 0 0 0 0 0 0 0 0 0 0 0 0 0 0 0 0 0.25 0"/>
<feBlend mode="normal" in2="BackgroundImageFix" result="effect1_dropShadow_91:361"/>
<feBlend mode="normal" in="SourceGraphic" in2="effect1_dropShadow_91:361" result="shape"/>
</filter>
</defs>
</svg>
