<svg width="24" height="24" viewBox="0 0 24 24" fill="none" xmlns="http://www.w3.org/2000/svg">
<path d="M6 7.5H12V9H6V7.5Z" fill="#EFECEA"/>
<path d="M6 4.5H15V6H6V4.5Z" fill="#EFECEA"/>
<path d="M6 1.5H15V3H6V1.5Z" fill="#EFECEA"/>
<path d="M3.43643 20.0714L7.45857 12.9314L12.7686 17.5671C12.9291 17.71 13.1198 17.8148 13.3264 17.8737C13.533 17.9326 13.7503 17.9442 13.962 17.9075C14.1737 17.8709 14.3744 17.7869 14.5492 17.662C14.7239 17.537 14.8683 17.3742 14.9714 17.1857L19.95 9.755L18.7636 8.95929L13.7636 16.4221L13.7136 16.4957L8.40286 11.86C8.24239 11.718 8.05208 11.6138 7.84596 11.5552C7.63985 11.4966 7.4232 11.485 7.21202 11.5214C7.00083 11.5577 6.80051 11.641 6.62584 11.7652C6.45118 11.8893 6.30662 12.0511 6.20286 12.2386L2.92857 18.0593V1.5H1.5V20.0714C1.50038 20.4502 1.65101 20.8133 1.91884 21.0812C2.18666 21.349 2.54981 21.4996 2.92857 21.5H21.5V20.0714H3.43643Z" fill="#EFECEA"/>
</svg>
