<svg width="15" height="20" viewBox="0 0 15 20" fill="none" xmlns="http://www.w3.org/2000/svg">
<path d="M2.70005 10.6C2.70005 10.4409 2.76326 10.2883 2.87578 10.1758C2.98831 10.0632 3.14092 10 3.30005 10C3.45918 10 3.61179 10.0632 3.72431 10.1758C3.83683 10.2883 3.90005 10.4409 3.90005 10.6C3.90005 10.7592 3.83683 10.9118 3.72431 11.0243C3.61179 11.1368 3.45918 11.2 3.30005 11.2C3.14092 11.2 2.98831 11.1368 2.87578 11.0243C2.76326 10.9118 2.70005 10.7592 2.70005 10.6ZM3.30005 12.4C3.14092 12.4 2.98831 12.4632 2.87578 12.5758C2.76326 12.6883 2.70005 12.8409 2.70005 13C2.70005 13.1592 2.76326 13.3118 2.87578 13.4243C2.98831 13.5368 3.14092 13.6 3.30005 13.6C3.45918 13.6 3.61179 13.5368 3.72431 13.4243C3.83683 13.3118 3.90005 13.1592 3.90005 13C3.90005 12.8409 3.83683 12.6883 3.72431 12.5758C3.61179 12.4632 3.45918 12.4 3.30005 12.4ZM2.70005 15.4C2.70005 15.2409 2.76326 15.0883 2.87578 14.9758C2.98831 14.8632 3.14092 14.8 3.30005 14.8C3.45918 14.8 3.61179 14.8632 3.72431 14.9758C3.83683 15.0883 3.90005 15.2409 3.90005 15.4C3.90005 15.5592 3.83683 15.7118 3.72431 15.8243C3.61179 15.9368 3.45918 16 3.30005 16C3.14092 16 2.98831 15.9368 2.87578 15.8243C2.76326 15.7118 2.70005 15.5592 2.70005 15.4ZM5.70005 10C5.54092 10 5.38831 10.0632 5.27578 10.1758C5.16326 10.2883 5.10005 10.4409 5.10005 10.6C5.10005 10.7592 5.16326 10.9118 5.27578 11.0243C5.38831 11.1368 5.54092 11.2 5.70005 11.2H11.7C11.8592 11.2 12.0118 11.1368 12.1243 11.0243C12.2368 10.9118 12.3 10.7592 12.3 10.6C12.3 10.4409 12.2368 10.2883 12.1243 10.1758C12.0118 10.0632 11.8592 10 11.7 10H5.70005ZM5.10005 13C5.10005 12.8409 5.16326 12.6883 5.27578 12.5758C5.38831 12.4632 5.54092 12.4 5.70005 12.4H11.7C11.8592 12.4 12.0118 12.4632 12.1243 12.5758C12.2368 12.6883 12.3 12.8409 12.3 13C12.3 13.1592 12.2368 13.3118 12.1243 13.4243C12.0118 13.5368 11.8592 13.6 11.7 13.6H5.70005C5.54092 13.6 5.38831 13.5368 5.27578 13.4243C5.16326 13.3118 5.10005 13.1592 5.10005 13ZM5.70005 14.8C5.54092 14.8 5.38831 14.8632 5.27578 14.9758C5.16326 15.0883 5.10005 15.2409 5.10005 15.4C5.10005 15.5592 5.16326 15.7118 5.27578 15.8243C5.38831 15.9368 5.54092 16 5.70005 16H11.7C11.8592 16 12.0118 15.9368 12.1243 15.8243C12.2368 15.7118 12.3 15.5592 12.3 15.4C12.3 15.2409 12.2368 15.0883 12.1243 14.9758C12.0118 14.8632 11.8592 14.8 11.7 14.8H5.70005ZM2.70005 0.400024C2.06353 0.400024 1.45308 0.652881 1.00299 1.10297C0.552905 1.55306 0.300049 2.1635 0.300049 2.80002V17.2C0.300049 17.8365 0.552905 18.447 1.00299 18.8971C1.45308 19.3472 2.06353 19.6 2.70005 19.6H12.3C12.9366 19.6 13.547 19.3472 13.9971 18.8971C14.4472 18.447 14.7 17.8365 14.7 17.2V6.89682C14.6996 6.4196 14.5097 5.96207 14.172 5.62482L9.47525 0.926824C9.13781 0.589602 8.68031 0.400126 8.20325 0.400024H2.70005ZM1.50005 2.80002C1.50005 2.48176 1.62648 2.17654 1.85152 1.9515C2.07656 1.72645 2.38179 1.60002 2.70005 1.60002H7.50005V5.80002C7.50005 6.27741 7.68969 6.73525 8.02726 7.07282C8.36482 7.41038 8.82266 7.60002 9.30005 7.60002H13.5V17.2C13.5 17.5183 13.3736 17.8235 13.1486 18.0486C12.9235 18.2736 12.6183 18.4 12.3 18.4H2.70005C2.38179 18.4 2.07656 18.2736 1.85152 18.0486C1.62648 17.8235 1.50005 17.5183 1.50005 17.2V2.80002ZM13.2516 6.40002H9.30005C9.14092 6.40002 8.98831 6.33681 8.87578 6.22429C8.76326 6.11177 8.70005 5.95915 8.70005 5.80002V1.84842L13.2516 6.40002Z" fill="white"/>
</svg>
