<svg width="25" height="25" viewBox="0 0 25 25" fill="none" xmlns="http://www.w3.org/2000/svg">
<path d="M3.20833 5.20833H9.45833C10.0312 5.20833 10.5 4.73958 10.5 4.16667C10.5 3.59375 10.0312 3.125 9.45833 3.125H3.20833C2.0625 3.125 1.125 4.0625 1.125 5.20833V19.7917C1.125 20.9375 2.0625 21.875 3.20833 21.875H9.45833C10.0312 21.875 10.5 21.4062 10.5 20.8333C10.5 20.2604 10.0312 19.7917 9.45833 19.7917H3.20833V5.20833Z" fill="#EFECEA"/>
<path d="M19.5104 12.1354L16.6042 9.22915C16.5317 9.15472 16.4387 9.10361 16.337 9.08234C16.2354 9.06108 16.1297 9.07064 16.0335 9.10979C15.9373 9.14894 15.855 9.21591 15.797 9.30212C15.7391 9.38833 15.7082 9.48987 15.7083 9.59373V11.4583H8.41667C7.84375 11.4583 7.375 11.9271 7.375 12.5C7.375 13.0729 7.84375 13.5416 8.41667 13.5416H15.7083V15.4062C15.7083 15.875 16.2708 16.1041 16.5938 15.7708L19.5 12.8646C19.7083 12.6666 19.7083 12.3333 19.5104 12.1354Z" fill="#EFECEA"/>
</svg>
