<svg width="20" height="24" viewBox="0 0 20 24" fill="none" xmlns="http://www.w3.org/2000/svg">
<path d="M10.0002 0C6.07599 0 2.85999 3.2064 2.85999 7.11984C2.85999 8.63616 3.34431 10.0454 4.16391 11.2037L9.12878 19.7868C9.82406 20.6952 10.2863 20.5226 10.8645 19.7388L16.3408 10.4196C16.4512 10.2194 16.5381 10.0063 16.6137 9.78864C16.9612 8.94179 17.1399 8.03521 17.1397 7.11984C17.14 3.2064 13.9249 0 10.0002 0ZM10.0002 3.336C12.1137 3.336 13.7941 5.01264 13.7941 7.11984C13.7941 9.22704 12.1137 10.903 10.0002 10.903C7.88703 10.903 6.20583 9.22728 6.20583 7.11984C6.20583 5.01264 7.88703 3.33624 10.0002 3.33624V3.336Z" fill="white"/>
<path d="M14.5391 11.7379L14.5276 11.7682C14.5312 11.759 14.5341 11.7497 14.5377 11.7406L14.5391 11.7379V11.7379Z" fill="white"/>
<path d="M6.16146 16.5737C2.77122 17.0528 0.400024 18.1988 0.400024 19.8857C0.400024 22.1581 4.36194 24.0001 10 24.0001C15.6381 24.0001 19.6 22.1581 19.6 19.8857C19.6 18.1988 17.2291 17.0528 13.8391 16.5737L13.3694 17.3734C15.9244 17.7279 17.68 18.4729 17.68 19.3373C17.68 20.5493 14.2415 21.5316 10 21.5316C5.7585 21.5316 2.32002 20.5493 2.32002 19.3373C2.31978 18.4757 4.06386 17.7315 6.62682 17.3756C6.47202 17.1082 6.31626 16.8413 6.16122 16.5737H6.16146Z" fill="white"/>
</svg>
