<svg width="52" height="15" viewBox="0 0 52 15" fill="none" xmlns="http://www.w3.org/2000/svg">
<path d="M6.968 10.696V12H0.464V0.535999H2.008V10.696H6.968ZM11.1846 3.768C11.7766 3.768 12.31 3.86667 12.7846 4.064C13.2593 4.26133 13.6646 4.54133 14.0006 4.904C14.3366 5.26667 14.5926 5.70667 14.7686 6.224C14.95 6.736 15.0406 7.30933 15.0406 7.944C15.0406 8.584 14.95 9.16 14.7686 9.672C14.5926 10.184 14.3366 10.6213 14.0006 10.984C13.6646 11.3467 13.2593 11.6267 12.7846 11.824C12.31 12.016 11.7766 12.112 11.1846 12.112C10.5873 12.112 10.0486 12.016 9.56863 11.824C9.09396 11.6267 8.68863 11.3467 8.35263 10.984C8.01663 10.6213 7.75796 10.184 7.57663 9.672C7.40063 9.16 7.31263 8.584 7.31263 7.944C7.31263 7.30933 7.40063 6.736 7.57663 6.224C7.75796 5.70667 8.01663 5.26667 8.35263 4.904C8.68863 4.54133 9.09396 4.26133 9.56863 4.064C10.0486 3.86667 10.5873 3.768 11.1846 3.768ZM11.1846 11C11.9846 11 12.582 10.7333 12.9766 10.2C13.3713 9.66133 13.5686 8.912 13.5686 7.952C13.5686 6.98667 13.3713 6.23467 12.9766 5.696C12.582 5.15733 11.9846 4.888 11.1846 4.888C10.7793 4.888 10.4246 4.95733 10.1206 5.096C9.82196 5.23467 9.57129 5.43467 9.36863 5.696C9.17129 5.95733 9.02196 6.28 8.92063 6.664C8.82463 7.04267 8.77663 7.472 8.77663 7.952C8.77663 8.912 8.97396 9.66133 9.36863 10.2C9.76863 10.7333 10.374 11 11.1846 11ZM19.6239 8.04C19.9119 8.04 20.1652 8 20.3839 7.92C20.6025 7.84 20.7865 7.728 20.9359 7.584C21.0852 7.44 21.1972 7.26933 21.2719 7.072C21.3465 6.86933 21.3839 6.648 21.3839 6.408C21.3839 5.912 21.2319 5.51733 20.9279 5.224C20.6292 4.93067 20.1945 4.784 19.6239 4.784C19.0479 4.784 18.6079 4.93067 18.3039 5.224C18.0052 5.51733 17.8559 5.912 17.8559 6.408C17.8559 6.648 17.8932 6.86933 17.9679 7.072C18.0479 7.26933 18.1625 7.44 18.3119 7.584C18.4612 7.728 18.6452 7.84 18.8639 7.92C19.0825 8 19.3359 8.04 19.6239 8.04ZM22.1919 12.44C22.1919 12.2427 22.1359 12.0827 22.0239 11.96C21.9119 11.8373 21.7599 11.7413 21.5679 11.672C21.3812 11.6027 21.1625 11.5547 20.9119 11.528C20.6612 11.496 20.3945 11.472 20.1119 11.456C19.8345 11.44 19.5519 11.424 19.2639 11.408C18.9759 11.392 18.6985 11.3653 18.4319 11.328C18.1332 11.4667 17.8879 11.6427 17.6959 11.856C17.5092 12.064 17.4159 12.3093 17.4159 12.592C17.4159 12.7733 17.4612 12.9413 17.5519 13.096C17.6479 13.256 17.7919 13.392 17.9839 13.504C18.1759 13.6213 18.4159 13.712 18.7039 13.776C18.9972 13.8453 19.3412 13.88 19.7359 13.88C20.1199 13.88 20.4639 13.8453 20.7679 13.776C21.0719 13.7067 21.3279 13.608 21.5359 13.48C21.7492 13.352 21.9119 13.2 22.0239 13.024C22.1359 12.848 22.1919 12.6533 22.1919 12.44ZM23.6399 4.216V4.744C23.6399 4.92 23.5279 5.032 23.3039 5.08L22.3839 5.2C22.5652 5.552 22.6559 5.94133 22.6559 6.368C22.6559 6.76267 22.5785 7.12267 22.4239 7.448C22.2745 7.768 22.0665 8.04267 21.7999 8.272C21.5332 8.50133 21.2132 8.67733 20.8399 8.8C20.4665 8.92267 20.0612 8.984 19.6239 8.984C19.2452 8.984 18.8879 8.93867 18.5519 8.848C18.3812 8.95467 18.2505 9.06933 18.1599 9.192C18.0692 9.30933 18.0239 9.42933 18.0239 9.552C18.0239 9.744 18.1012 9.89067 18.2559 9.992C18.4159 10.088 18.6239 10.1573 18.8799 10.2C19.1359 10.2427 19.4265 10.2693 19.7519 10.28C20.0825 10.2907 20.4185 10.3093 20.7599 10.336C21.1065 10.3573 21.4425 10.3973 21.7679 10.456C22.0985 10.5147 22.3919 10.6107 22.6479 10.744C22.9039 10.8773 23.1092 11.0613 23.2639 11.296C23.4239 11.5307 23.5039 11.8347 23.5039 12.208C23.5039 12.5547 23.4159 12.8907 23.2399 13.216C23.0692 13.5413 22.8212 13.8293 22.4959 14.08C22.1705 14.336 21.7705 14.5387 21.2959 14.688C20.8265 14.8427 20.2959 14.92 19.7039 14.92C19.1119 14.92 18.5945 14.8613 18.1519 14.744C17.7092 14.6267 17.3412 14.4693 17.0479 14.272C16.7545 14.0747 16.5332 13.8453 16.3839 13.584C16.2399 13.328 16.1679 13.0587 16.1679 12.776C16.1679 12.376 16.2932 12.0373 16.5439 11.76C16.7945 11.4827 17.1385 11.2613 17.5759 11.096C17.3359 10.9893 17.1439 10.848 16.9999 10.672C16.8612 10.4907 16.7919 10.248 16.7919 9.944C16.7919 9.82667 16.8132 9.70667 16.8559 9.584C16.8985 9.456 16.9625 9.33067 17.0479 9.208C17.1385 9.08 17.2479 8.96 17.3759 8.848C17.5039 8.736 17.6532 8.63733 17.8239 8.552C17.4239 8.328 17.1119 8.032 16.8879 7.664C16.6639 7.29067 16.5519 6.85867 16.5519 6.368C16.5519 5.97333 16.6265 5.616 16.7759 5.296C16.9305 4.97067 17.1439 4.696 17.4159 4.472C17.6879 4.24267 18.0105 4.06667 18.3839 3.944C18.7625 3.82133 19.1759 3.76 19.6239 3.76C19.9759 3.76 20.3039 3.8 20.6079 3.88C20.9119 3.95467 21.1892 4.06667 21.4399 4.216H23.6399ZM32.6221 3.768C33.2141 3.768 33.7475 3.86667 34.2221 4.064C34.6968 4.26133 35.1021 4.54133 35.4381 4.904C35.7741 5.26667 36.0301 5.70667 36.2061 6.224C36.3875 6.736 36.4781 7.30933 36.4781 7.944C36.4781 8.584 36.3875 9.16 36.2061 9.672C36.0301 10.184 35.7741 10.6213 35.4381 10.984C35.1021 11.3467 34.6968 11.6267 34.2221 11.824C33.7475 12.016 33.2141 12.112 32.6221 12.112C32.0248 12.112 31.4861 12.016 31.0061 11.824C30.5315 11.6267 30.1261 11.3467 29.7901 10.984C29.4541 10.6213 29.1955 10.184 29.0141 9.672C28.8381 9.16 28.7501 8.584 28.7501 7.944C28.7501 7.30933 28.8381 6.736 29.0141 6.224C29.1955 5.70667 29.4541 5.26667 29.7901 4.904C30.1261 4.54133 30.5315 4.26133 31.0061 4.064C31.4861 3.86667 32.0248 3.768 32.6221 3.768ZM32.6221 11C33.4221 11 34.0195 10.7333 34.4141 10.2C34.8088 9.66133 35.0061 8.912 35.0061 7.952C35.0061 6.98667 34.8088 6.23467 34.4141 5.696C34.0195 5.15733 33.4221 4.888 32.6221 4.888C32.2168 4.888 31.8621 4.95733 31.5581 5.096C31.2595 5.23467 31.0088 5.43467 30.8061 5.696C30.6088 5.95733 30.4595 6.28 30.3581 6.664C30.2621 7.04267 30.2141 7.472 30.2141 7.952C30.2141 8.912 30.4115 9.66133 30.8061 10.2C31.2061 10.7333 31.8115 11 32.6221 11ZM44.9483 3.896V12H44.1003C43.8976 12 43.7696 11.9013 43.7163 11.704L43.6043 10.832C43.2523 11.2213 42.8576 11.536 42.4203 11.776C41.9829 12.0107 41.4816 12.128 40.9163 12.128C40.4736 12.128 40.0816 12.056 39.7403 11.912C39.4043 11.7627 39.1216 11.5547 38.8923 11.288C38.6629 11.0213 38.4896 10.6987 38.3723 10.32C38.2603 9.94133 38.2043 9.52267 38.2043 9.064V3.896H39.6283V9.064C39.6283 9.67733 39.7669 10.152 40.0443 10.488C40.3269 10.824 40.7563 10.992 41.3323 10.992C41.7536 10.992 42.1456 10.8933 42.5083 10.696C42.8763 10.4933 43.2149 10.216 43.5243 9.864V3.896H44.9483ZM49.6941 12.128C49.0541 12.128 48.5608 11.9493 48.2141 11.592C47.8728 11.2347 47.7021 10.72 47.7021 10.048V5.088H46.7261C46.6408 5.088 46.5688 5.064 46.5101 5.016C46.4515 4.96267 46.4221 4.88267 46.4221 4.776V4.208L47.7501 4.04L48.0781 1.536C48.0941 1.456 48.1288 1.392 48.1821 1.344C48.2408 1.29067 48.3155 1.264 48.4061 1.264H49.1261V4.056H51.4701V5.088H49.1261V9.952C49.1261 10.2933 49.2088 10.5467 49.3741 10.712C49.5395 10.8773 49.7528 10.96 50.0141 10.96C50.1635 10.96 50.2915 10.9413 50.3981 10.904C50.5101 10.8613 50.6061 10.816 50.6861 10.768C50.7661 10.72 50.8328 10.6773 50.8861 10.64C50.9448 10.5973 50.9955 10.576 51.0381 10.576C51.1128 10.576 51.1795 10.6213 51.2381 10.712L51.6541 11.392C51.4088 11.6213 51.1128 11.8027 50.7661 11.936C50.4195 12.064 50.0621 12.128 49.6941 12.128Z" fill="white"/>
</svg>
