<svg width="33" height="10" viewBox="0 0 33 10" fill="none" xmlns="http://www.w3.org/2000/svg">
<path d="M5.832 5.916L4.104 1.626C4.044 1.486 3.986 1.318 3.93 1.122C3.906 1.218 3.88 1.31 3.852 1.398C3.824 1.482 3.794 1.56 3.762 1.632L2.034 5.916H5.832ZM7.71 9H7.236C7.18 9 7.134 8.986 7.098 8.958C7.062 8.926 7.034 8.886 7.014 8.838L6.018 6.372H1.848L0.852 8.838C0.836 8.882 0.808 8.92 0.768 8.952C0.728 8.984 0.68 9 0.624 9H0.156L3.63 0.51H4.236L7.71 9ZM12.7807 4.314C12.5527 3.97 12.2987 3.728 12.0187 3.588C11.7427 3.448 11.4267 3.378 11.0707 3.378C10.7187 3.378 10.4107 3.442 10.1467 3.57C9.88266 3.698 9.66066 3.88 9.48066 4.116C9.30466 4.348 9.17066 4.628 9.07866 4.956C8.99066 5.28 8.94666 5.638 8.94666 6.03C8.94666 6.918 9.10866 7.572 9.43266 7.992C9.76066 8.408 10.2327 8.616 10.8487 8.616C11.2407 8.616 11.5987 8.514 11.9227 8.31C12.2467 8.106 12.5327 7.82 12.7807 7.452V4.314ZM13.3507 0.27V9H13.0387C12.9347 9 12.8747 8.948 12.8587 8.844L12.7987 7.902C12.5347 8.262 12.2267 8.548 11.8747 8.76C11.5227 8.972 11.1267 9.078 10.6867 9.078C9.95066 9.078 9.37866 8.824 8.97066 8.316C8.56266 7.808 8.35866 7.046 8.35866 6.03C8.35866 5.594 8.41466 5.188 8.52666 4.812C8.64266 4.432 8.81066 4.104 9.03066 3.828C9.25066 3.548 9.52066 3.328 9.84066 3.168C10.1647 3.008 10.5367 2.928 10.9567 2.928C11.3607 2.928 11.7107 3.002 12.0067 3.15C12.3027 3.298 12.5607 3.518 12.7807 3.81V0.27H13.3507ZM15.316 9V3.03H15.634C15.734 3.03 15.792 3.08 15.808 3.18L15.862 4.044C16.094 3.712 16.36 3.444 16.66 3.24C16.96 3.036 17.298 2.934 17.674 2.934C18.11 2.934 18.458 3.06 18.718 3.312C18.982 3.564 19.16 3.914 19.252 4.362C19.324 4.118 19.424 3.906 19.552 3.726C19.684 3.546 19.834 3.398 20.002 3.282C20.17 3.162 20.352 3.074 20.548 3.018C20.748 2.962 20.952 2.934 21.16 2.934C21.456 2.934 21.722 2.984 21.958 3.084C22.194 3.18 22.394 3.324 22.558 3.516C22.722 3.708 22.848 3.944 22.936 4.224C23.024 4.504 23.068 4.824 23.068 5.184V9H22.498V5.184C22.498 4.6 22.372 4.156 22.12 3.852C21.868 3.544 21.508 3.39 21.04 3.39C20.832 3.39 20.632 3.428 20.44 3.504C20.252 3.58 20.084 3.694 19.936 3.846C19.792 3.994 19.676 4.18 19.588 4.404C19.504 4.628 19.462 4.888 19.462 5.184V9H18.886V5.184C18.886 4.604 18.77 4.16 18.538 3.852C18.31 3.544 17.974 3.39 17.53 3.39C17.206 3.39 16.906 3.486 16.63 3.678C16.354 3.87 16.108 4.136 15.892 4.476V9H15.316ZM25.6083 3.03V9H25.0383V3.03H25.6083ZM25.8543 0.972C25.8543 1.044 25.8383 1.112 25.8063 1.176C25.7783 1.236 25.7403 1.29 25.6923 1.338C25.6443 1.386 25.5883 1.424 25.5243 1.452C25.4603 1.48 25.3923 1.494 25.3203 1.494C25.2483 1.494 25.1803 1.48 25.1163 1.452C25.0523 1.424 24.9963 1.386 24.9483 1.338C24.9003 1.29 24.8623 1.236 24.8343 1.176C24.8063 1.112 24.7923 1.044 24.7923 0.972C24.7923 0.9 24.8063 0.832 24.8343 0.767999C24.8623 0.7 24.9003 0.642 24.9483 0.594C24.9963 0.546 25.0523 0.507999 25.1163 0.48C25.1803 0.452 25.2483 0.438 25.3203 0.438C25.3923 0.438 25.4603 0.452 25.5243 0.48C25.5883 0.507999 25.6443 0.546 25.6923 0.594C25.7403 0.642 25.7783 0.7 25.8063 0.767999C25.8383 0.832 25.8543 0.9 25.8543 0.972ZM28.1902 4.074C28.4662 3.73 28.7842 3.454 29.1442 3.246C29.5082 3.038 29.9122 2.934 30.3562 2.934C30.6842 2.934 30.9722 2.986 31.2202 3.09C31.4722 3.194 31.6802 3.344 31.8442 3.54C32.0082 3.736 32.1322 3.972 32.2162 4.248C32.3002 4.524 32.3422 4.836 32.3422 5.184V9H31.7662V5.184C31.7662 4.624 31.6382 4.186 31.3822 3.87C31.1262 3.55 30.7362 3.39 30.2122 3.39C29.8242 3.39 29.4602 3.49 29.1202 3.69C28.7842 3.886 28.4842 4.16 28.2202 4.512V9H27.6442V3.03H27.9622C28.0622 3.03 28.1202 3.08 28.1362 3.18L28.1902 4.074Z" fill="#EFECEA"/>
</svg>
