<svg width="22" height="22" viewBox="0 0 22 22" fill="none" xmlns="http://www.w3.org/2000/svg">
<path d="M19.7802 10H22C22 4.29937 17.7014 0 12 0V2.22247C16.5083 2.22247 19.7802 5.49283 19.7802 10Z" fill="white"/>
<path d="M11.7892 6.67557C14.2684 6.67557 15.3259 7.73296 15.3259 10.212H17.6836C17.6836 6.41034 15.5911 4.31797 11.7892 4.31797V6.67557ZM15.8234 13.0918C15.5968 12.8859 15.2992 12.7761 14.9932 12.7856C14.6872 12.795 14.3969 12.923 14.1835 13.1425L11.3624 16.0435C10.6834 15.9138 9.31826 15.4883 7.91302 14.0867C6.50779 12.6804 6.08221 11.3118 5.95607 10.6375L8.85495 7.81547C9.07471 7.60226 9.20288 7.31191 9.21235 7.00588C9.22181 6.69984 9.11181 6.40214 8.90565 6.17576L4.54966 1.38628C4.3434 1.1592 4.05674 1.02145 3.75055 1.0023C3.44436 0.983152 3.14277 1.08411 2.90983 1.28373L0.351641 3.47748C0.147824 3.68202 0.0261731 3.95425 0.0097635 4.24252C-0.00791981 4.53722 -0.345081 11.5181 5.06837 16.9335C9.79099 21.6546 15.7066 22 17.3359 22C17.574 22 17.7202 21.9929 17.7591 21.9906C18.0473 21.9744 18.3194 21.8523 18.523 21.6475L20.7157 19.0884C20.9155 18.8556 21.0167 18.5541 20.9978 18.2479C20.9788 17.9418 20.8413 17.655 20.6144 17.4486L15.8234 13.0918V13.0918Z" fill="white"/>
</svg>
