<svg width="15" height="24" viewBox="0 0 15 24" fill="none" xmlns="http://www.w3.org/2000/svg">
<path d="M6.825 0.787454C2.475 1.04995 0.1875 3.52495 0 7.98745H4.3875C4.425 6.44995 5.325 5.28745 6.9 5.09995C8.475 4.94995 9.975 5.32495 10.425 6.37495C10.9125 7.53745 9.825 8.88745 9.3 9.44995C8.325 10.5 6.75 11.2875 5.925 12.4125C5.1375 13.5375 4.9875 15 4.9125 16.8H8.775C8.8125 15.6375 8.8875 14.55 9.4125 13.8375C10.275 12.675 11.55 12.15 12.6 11.2125C13.6125 10.35 14.7 9.29995 14.85 7.64995C15.4875 2.81245 11.5125 0.487454 6.825 0.787454Z" fill="white"/>
<path d="M6.9375 23.25C8.28369 23.25 9.375 22.1754 9.375 20.85C9.375 19.5245 8.28369 18.45 6.9375 18.45C5.59131 18.45 4.5 19.5245 4.5 20.85C4.5 22.1754 5.59131 23.25 6.9375 23.25Z" fill="white"/>
</svg>
