<svg width="21" height="21" viewBox="0 0 21 21" fill="none" xmlns="http://www.w3.org/2000/svg">
<path d="M20.3399 18.9624L13.8475 12.4699C14.855 11.1674 15.4 9.57492 15.4 7.89993C15.4 5.89494 14.6175 4.01495 13.2025 2.59745C11.7875 1.17996 9.90248 0.399963 7.89999 0.399963C5.8975 0.399963 4.01251 1.18246 2.59751 2.59745C1.18002 4.01245 0.400024 5.89494 0.400024 7.89993C0.400024 9.90242 1.18252 11.7874 2.59751 13.2024C4.01251 14.6199 5.895 15.3999 7.89999 15.3999C9.57498 15.3999 11.165 14.8549 12.4675 13.8499L18.9599 20.3399C18.979 20.3589 19.0016 20.374 19.0265 20.3843C19.0513 20.3947 19.078 20.4 19.1049 20.4C19.1319 20.4 19.1585 20.3947 19.1834 20.3843C19.2083 20.374 19.2309 20.3589 19.2499 20.3399L20.3399 19.2524C20.359 19.2333 20.3741 19.2107 20.3844 19.1859C20.3947 19.161 20.4 19.1343 20.4 19.1074C20.4 19.0805 20.3947 19.0538 20.3844 19.0289C20.3741 19.004 20.359 18.9814 20.3399 18.9624ZM11.86 11.8599C10.8 12.9174 9.39498 13.4999 7.89999 13.4999C6.405 13.4999 5 12.9174 3.94001 11.8599C2.88251 10.7999 2.30002 9.39492 2.30002 7.89993C2.30002 6.40494 2.88251 4.99744 3.94001 3.93995C5 2.88245 6.405 2.29996 7.89999 2.29996C9.39498 2.29996 10.8025 2.87995 11.86 3.93995C12.9175 4.99994 13.5 6.40494 13.5 7.89993C13.5 9.39492 12.9175 10.8024 11.86 11.8599Z" fill="#A4A4A4"/>
</svg>
