<svg width="24" height="24" viewBox="0 0 24 24" fill="none" xmlns="http://www.w3.org/2000/svg">
<path fill-rule="evenodd" clip-rule="evenodd" d="M11.982 18.1079C9.819 18.1079 7.6215 16.8239 6.339 15.1244C0.185999 15.1244 0 23.9144 0 23.9144H23.9625C23.9625 23.9144 24.4455 15.0854 17.526 15.0854C16.245 16.8059 14.145 18.1079 11.982 18.1079V18.1079Z" fill="white"/>
<path fill-rule="evenodd" clip-rule="evenodd" d="M17.136 7.57047C17.136 10.0995 14.8275 14.9355 11.9775 14.9355C9.13202 14.9355 6.82202 10.098 6.82202 7.57047C6.82202 5.04297 9.13052 2.99097 11.9775 2.99097C14.8275 2.99247 17.136 5.04447 17.136 7.57047V7.57047Z" fill="white"/>
<path fill-rule="evenodd" clip-rule="evenodd" d="M19.437 5.388C19.437 4.914 18.777 4.5315 17.958 4.5285V3.552C17.958 3.4065 18.0135 0 11.9955 0C5.98051 0 6.03601 3.4065 6.03601 3.552V4.563C6.02101 4.563 6.00901 4.5585 5.99551 4.5585C5.18101 4.5585 4.52551 4.935 4.52551 5.4015V9.5325C4.52551 9.996 5.18251 10.374 5.99551 10.374C6.80851 10.374 7.46851 9.996 7.46851 9.5325V5.4015C7.46851 5.337 7.42801 5.2785 7.40401 5.2185V4.092C7.40401 3.9885 6.97201 1.4175 11.9955 1.4175C17.0205 1.4175 16.4985 3.9885 16.4985 4.092V5.2785C16.4895 5.316 16.461 5.349 16.461 5.388V9.6135C16.461 10.089 17.1255 10.4745 17.949 10.4745C17.967 10.4745 17.9805 10.4685 17.9985 10.4685V12.012H16.5225V13.467H19.452L19.437 5.388V5.388Z" fill="white"/>
</svg>
