<svg width="23" height="20" viewBox="0 0 23 20" fill="none" xmlns="http://www.w3.org/2000/svg">
<path d="M22.706 2.93695C21.871 3.30695 20.974 3.55696 20.031 3.66996C21.004 3.08775 21.7319 2.17142 22.079 1.09195C21.1648 1.63494 20.1643 2.01715 19.121 2.22196C18.4194 1.47282 17.4901 0.976281 16.4773 0.809429C15.4646 0.642577 14.4251 0.814746 13.5202 1.29921C12.6154 1.78367 11.8958 2.55332 11.4732 3.48866C11.0505 4.424 10.9485 5.4727 11.183 6.47195C9.33069 6.37895 7.51863 5.8975 5.86442 5.05886C4.21022 4.22022 2.75084 3.04312 1.581 1.60396C1.181 2.29396 0.951 3.09396 0.951 3.94596C0.950554 4.71295 1.13943 5.4682 1.50088 6.14469C1.86232 6.82118 2.38516 7.39799 3.023 7.82396C2.28328 7.80042 1.55987 7.60054 0.913 7.24095V7.30095C0.912925 8.3767 1.28503 9.41933 1.96618 10.252C2.64733 11.0846 3.59557 11.6559 4.65 11.869C3.96378 12.0547 3.24434 12.082 2.546 11.949C2.8435 12.8746 3.423 13.684 4.20337 14.2639C4.98374 14.8438 5.92592 15.1651 6.898 15.183C5.24783 16.4784 3.20989 17.181 1.112 17.178C0.740381 17.1781 0.369076 17.1564 0 17.113C2.12948 18.4821 4.60834 19.2088 7.14 19.206C15.71 19.206 20.395 12.108 20.395 5.95195C20.395 5.75195 20.39 5.54995 20.381 5.34995C21.2923 4.69093 22.0789 3.87485 22.704 2.93995L22.706 2.93695V2.93695Z" fill="#9D9D9D"/>
</svg>
