<svg width="22" height="23" viewBox="0 0 22 23" fill="none" xmlns="http://www.w3.org/2000/svg">
<path d="M14.25 16.25C15.0784 16.25 15.75 15.5784 15.75 14.75C15.75 13.9216 15.0784 13.25 14.25 13.25C13.4216 13.25 12.75 13.9216 12.75 14.75C12.75 15.5784 13.4216 16.25 14.25 16.25Z" fill="white"/>
<path d="M18.75 22.25C18.1567 22.25 17.5766 22.0741 17.0833 21.7444C16.5899 21.4148 16.2054 20.9462 15.9784 20.3981C15.7513 19.8499 15.6919 19.2467 15.8076 18.6647C15.9234 18.0828 16.2091 17.5482 16.6287 17.1287C17.0482 16.7091 17.5828 16.4234 18.1647 16.3076C18.7467 16.1919 19.3499 16.2513 19.8981 16.4784C20.4462 16.7054 20.9148 17.0899 21.2444 17.5833C21.5741 18.0766 21.75 18.6567 21.75 19.25C21.7476 20.0449 21.4308 20.8066 20.8687 21.3687C20.3066 21.9308 19.5449 22.2476 18.75 22.25ZM18.75 17.75C18.4533 17.75 18.1633 17.838 17.9166 18.0028C17.67 18.1676 17.4777 18.4019 17.3642 18.676C17.2507 18.9501 17.2209 19.2517 17.2788 19.5426C17.3367 19.8336 17.4796 20.1009 17.6893 20.3107C17.8991 20.5204 18.1664 20.6633 18.4574 20.7212C18.7483 20.7791 19.0499 20.7494 19.324 20.6358C19.5981 20.5223 19.8324 20.33 19.9972 20.0834C20.162 19.8367 20.25 19.5467 20.25 19.25C20.2488 18.8525 20.0904 18.4717 19.8094 18.1907C19.5283 17.9096 19.1475 17.7512 18.75 17.75V17.75Z" fill="white"/>
<path d="M21 11C20.9919 8.21774 19.883 5.55174 17.9157 3.58436C15.9483 1.61698 13.2823 0.508131 10.5 0.500019C8.70845 0.474464 6.94428 0.941448 5.4 1.85002L6.225 3.12502C6.81126 2.84324 7.41211 2.59288 8.025 2.37502C6.78517 4.82146 6.0941 7.50897 6 10.25H1.5C1.58404 9.01165 1.94271 7.80753 2.55 6.72502L1.425 5.75002C0.491789 7.34225 -9.89387e-05 9.15447 1.07183e-07 11C-0.000196926 12.379 0.271259 13.7444 0.798864 15.0184C1.32647 16.2924 2.09989 17.45 3.07494 18.4251C4.04999 19.4001 5.20758 20.1736 6.48159 20.7012C7.7556 21.2288 9.12106 21.5002 10.5 21.5C11.837 21.5126 13.163 21.2576 14.4 20.75L13.95 19.325C12.7204 19.8508 11.3848 20.082 10.05 20C8.4506 17.5401 7.56763 14.6834 7.5 11.75H20.925C20.987 11.5051 21.0123 11.2524 21 11V11ZM8.1 19.7C6.6086 19.253 5.2457 18.4558 4.125 17.375C2.63689 15.8523 1.71116 13.8686 1.5 11.75H6C6.1032 14.5227 6.82044 17.238 8.1 19.7V19.7ZM7.5 10.25C7.55965 7.32615 8.41534 4.47388 9.975 2.00002H11.025C12.5847 4.47388 13.4403 7.32615 13.5 10.25H7.5ZM15 10.25C14.9429 7.47062 14.223 4.74503 12.9 2.30002C14.6647 2.80865 16.2333 3.84105 17.3984 5.26062C18.5636 6.6802 19.2702 8.42006 19.425 10.25H15Z" fill="white"/>
</svg>
