<svg width="286" height="37" viewBox="0 0 286 37" fill="none" xmlns="http://www.w3.org/2000/svg">
<path d="M0 8C0 3.58172 3.58172 0 8 0H278C282.418 0 286 3.58172 286 8V29C286 33.4183 282.418 37 278 37H8C3.58173 37 0 33.4183 0 29V8Z" fill="url(#paint0_linear_89:49)"/>
<g filter="url(#filter0_d_89:49)">
<path d="M97.6043 26H95.4443V14.432H97.6043V26ZM109.946 14.432V26H108.842C108.672 26 108.528 25.9733 108.41 25.92C108.298 25.8613 108.189 25.7653 108.082 25.632L102.042 17.92C102.074 18.272 102.09 18.5973 102.09 18.896V26H100.194V14.432H101.322C101.413 14.432 101.49 14.4373 101.554 14.448C101.624 14.4533 101.682 14.4693 101.73 14.496C101.784 14.5173 101.834 14.552 101.882 14.6C101.93 14.6427 101.984 14.7013 102.042 14.776L108.106 22.52C108.09 22.3333 108.077 22.1493 108.066 21.968C108.056 21.7867 108.05 21.6187 108.05 21.464V14.432H109.946ZM118.682 16.536C118.618 16.648 118.549 16.7307 118.474 16.784C118.405 16.832 118.317 16.856 118.21 16.856C118.098 16.856 117.976 16.816 117.842 16.736C117.714 16.6507 117.56 16.5573 117.378 16.456C117.197 16.3547 116.984 16.264 116.738 16.184C116.498 16.0987 116.213 16.056 115.882 16.056C115.584 16.056 115.322 16.0933 115.098 16.168C114.874 16.2373 114.685 16.336 114.53 16.464C114.381 16.592 114.269 16.7467 114.194 16.928C114.12 17.104 114.082 17.2987 114.082 17.512C114.082 17.784 114.157 18.0107 114.306 18.192C114.461 18.3733 114.664 18.528 114.914 18.656C115.165 18.784 115.45 18.8987 115.77 19C116.09 19.1013 116.418 19.2107 116.754 19.328C117.09 19.44 117.418 19.5733 117.738 19.728C118.058 19.8773 118.344 20.0693 118.594 20.304C118.845 20.5333 119.045 20.816 119.194 21.152C119.349 21.488 119.426 21.896 119.426 22.376C119.426 22.8987 119.336 23.3893 119.154 23.848C118.978 24.3013 118.717 24.6987 118.37 25.04C118.029 25.376 117.61 25.6427 117.114 25.84C116.618 26.032 116.05 26.128 115.41 26.128C115.042 26.128 114.68 26.0907 114.322 26.016C113.965 25.9467 113.621 25.8453 113.29 25.712C112.965 25.5787 112.658 25.4187 112.37 25.232C112.082 25.0453 111.826 24.8373 111.602 24.608L112.234 23.576C112.288 23.5013 112.357 23.44 112.442 23.392C112.528 23.3387 112.618 23.312 112.714 23.312C112.848 23.312 112.992 23.368 113.146 23.48C113.301 23.5867 113.485 23.7067 113.698 23.84C113.912 23.9733 114.16 24.096 114.442 24.208C114.73 24.3147 115.074 24.368 115.474 24.368C116.088 24.368 116.562 24.224 116.898 23.936C117.234 23.6427 117.402 23.224 117.402 22.68C117.402 22.376 117.325 22.128 117.17 21.936C117.021 21.744 116.821 21.584 116.57 21.456C116.32 21.3227 116.034 21.2107 115.714 21.12C115.394 21.0293 115.069 20.9307 114.738 20.824C114.408 20.7173 114.082 20.5893 113.762 20.44C113.442 20.2907 113.157 20.096 112.906 19.856C112.656 19.616 112.453 19.3173 112.298 18.96C112.149 18.5973 112.074 18.152 112.074 17.624C112.074 17.2027 112.157 16.792 112.322 16.392C112.493 15.992 112.738 15.6373 113.058 15.328C113.378 15.0187 113.773 14.7707 114.242 14.584C114.712 14.3973 115.25 14.304 115.858 14.304C116.541 14.304 117.17 14.4107 117.746 14.624C118.322 14.8373 118.813 15.136 119.218 15.52L118.682 16.536ZM123.464 16.144V19.352H127.512V21.008H123.464V24.28H128.6V26H121.304V14.432H128.6V16.144H123.464ZM134.003 19.936C134.408 19.936 134.76 19.8853 135.059 19.784C135.363 19.6827 135.611 19.544 135.803 19.368C136 19.1867 136.147 18.9733 136.243 18.728C136.339 18.4827 136.387 18.2133 136.387 17.92C136.387 17.3333 136.192 16.8827 135.803 16.568C135.419 16.2533 134.829 16.096 134.035 16.096H132.659V19.936H134.003ZM139.539 26H137.595C137.227 26 136.96 25.856 136.795 25.568L134.363 21.864C134.272 21.7253 134.171 21.6267 134.059 21.568C133.952 21.5093 133.792 21.48 133.579 21.48H132.659V26H130.507V14.432H134.035C134.819 14.432 135.491 14.5147 136.051 14.68C136.616 14.84 137.077 15.0667 137.435 15.36C137.797 15.6533 138.064 16.0053 138.235 16.416C138.405 16.8213 138.491 17.2693 138.491 17.76C138.491 18.1493 138.432 18.5173 138.315 18.864C138.203 19.2107 138.037 19.5253 137.819 19.808C137.605 20.0907 137.339 20.3387 137.019 20.552C136.704 20.7653 136.344 20.9333 135.939 21.056C136.077 21.136 136.205 21.232 136.323 21.344C136.44 21.4507 136.547 21.5787 136.643 21.728L139.539 26ZM148.571 16.2H145.083V26H142.931V16.2H139.443V14.432H148.571V16.2ZM161.087 16.2H157.599V26H155.447V16.2H151.959V14.432H161.087V16.2ZM164.761 16.144V19.352H168.809V21.008H164.761V24.28H169.897V26H162.601V14.432H169.897V16.144H164.761ZM181.204 26H179.06C178.91 26 178.79 25.9627 178.7 25.888C178.614 25.8133 178.545 25.728 178.492 25.632L175.812 21.192C175.769 21.3253 175.718 21.44 175.66 21.536L173.092 25.632C173.028 25.7227 172.953 25.808 172.868 25.888C172.788 25.9627 172.681 26 172.548 26H170.54L174.38 20.048L170.692 14.432H172.836C172.985 14.432 173.092 14.4533 173.156 14.496C173.225 14.5333 173.289 14.5973 173.348 14.688L175.98 18.928C176.033 18.7947 176.097 18.6613 176.172 18.528L178.588 14.728C178.646 14.6267 178.71 14.552 178.78 14.504C178.849 14.456 178.937 14.432 179.044 14.432H181.1L177.38 19.96L181.204 26ZM190.618 16.2H187.13V26H184.978V16.2H181.49V14.432H190.618V16.2Z" fill="#EFECEA"/>
</g>
<defs>
<filter id="filter0_d_89:49" x="94.4443" y="14.304" width="97.1738" height="13.824" filterUnits="userSpaceOnUse" color-interpolation-filters="sRGB">
<feFlood flood-opacity="0" result="BackgroundImageFix"/>
<feColorMatrix in="SourceAlpha" type="matrix" values="0 0 0 0 0 0 0 0 0 0 0 0 0 0 0 0 0 0 127 0" result="hardAlpha"/>
<feOffset dy="1"/>
<feGaussianBlur stdDeviation="0.5"/>
<feComposite in2="hardAlpha" operator="out"/>
<feColorMatrix type="matrix" values="0 0 0 0 0 0 0 0 0 0 0 0 0 0 0 0 0 0 0.25 0"/>
<feBlend mode="normal" in2="BackgroundImageFix" result="effect1_dropShadow_89:49"/>
<feBlend mode="normal" in="SourceGraphic" in2="effect1_dropShadow_89:49" result="shape"/>
</filter>
<linearGradient id="paint0_linear_89:49" x1="143" y1="0" x2="143" y2="37" gradientUnits="userSpaceOnUse">
<stop offset="0.310417" stop-color="#FFBF42"/>
<stop offset="1" stop-color="#A76D1C"/>
</linearGradient>
</defs>
</svg>
