<svg width="36" height="37" viewBox="0 0 36 37" fill="none" xmlns="http://www.w3.org/2000/svg">
<rect x="0.5" y="0.5" width="35" height="36" rx="8" fill="url(#paint0_radial_604:45)"/>
<g filter="url(#filter0_d_604:45)">
<path d="M9.75 13.6875H7C6.63533 13.6875 6.28559 13.8324 6.02773 14.0902C5.76987 14.3481 5.625 14.6978 5.625 15.0625V31.5625C5.625 31.9272 5.76987 32.2769 6.02773 32.5348C6.28559 32.7926 6.63533 32.9375 7 32.9375H29C29.3647 32.9375 29.7144 32.7926 29.9723 32.5348C30.2301 32.2769 30.375 31.9272 30.375 31.5625V15.0625C30.375 14.6978 30.2301 14.3481 29.9723 14.0902C29.7144 13.8324 29.3647 13.6875 29 13.6875H26.25V12.3125C26.25 10.1245 25.3808 8.02604 23.8336 6.47887C22.2865 4.93169 20.188 4.0625 18 4.0625C15.812 4.0625 13.7135 4.93169 12.1664 6.47887C10.6192 8.02604 9.75 10.1245 9.75 12.3125V13.6875ZM12.5 13.6875V12.3125C12.5 10.8538 13.0795 9.45486 14.1109 8.42341C15.1424 7.39196 16.5413 6.8125 18 6.8125C19.4587 6.8125 20.8576 7.39196 21.8891 8.42341C22.9205 9.45486 23.5 10.8538 23.5 12.3125V13.6875H12.5ZM19.375 21.9375V24.6875H16.625V21.9375H19.375ZM24.875 21.9375V24.6875H22.125V21.9375H24.875ZM13.875 21.9375V24.6875H11.125V21.9375H13.875Z" fill="#E8CBAE"/>
</g>
<defs>
<filter id="filter0_d_604:45" x="4.425" y="3.8625" width="27.15" height="31.275" filterUnits="userSpaceOnUse" color-interpolation-filters="sRGB">
<feFlood flood-opacity="0" result="BackgroundImageFix"/>
<feColorMatrix in="SourceAlpha" type="matrix" values="0 0 0 0 0 0 0 0 0 0 0 0 0 0 0 0 0 0 127 0" result="hardAlpha"/>
<feOffset dy="1"/>
<feGaussianBlur stdDeviation="0.6"/>
<feComposite in2="hardAlpha" operator="out"/>
<feColorMatrix type="matrix" values="0 0 0 0 0 0 0 0 0 0 0 0 0 0 0 0 0 0 0.15 0"/>
<feBlend mode="normal" in2="BackgroundImageFix" result="effect1_dropShadow_604:45"/>
<feBlend mode="normal" in="SourceGraphic" in2="effect1_dropShadow_604:45" result="shape"/>
</filter>
<radialGradient id="paint0_radial_604:45" cx="0" cy="0" r="1" gradientUnits="userSpaceOnUse" gradientTransform="translate(18 18.5) rotate(90) scale(18 17.5)">
<stop offset="0.190625" stop-color="#FF7042"/>
<stop offset="1" stop-color="#A7351C"/>
</radialGradient>
</defs>
</svg>
