<svg width="28" height="33" viewBox="0 0 28 33" fill="none" xmlns="http://www.w3.org/2000/svg">
<g filter="url(#filter0_d_232:3053)">
<path d="M5.75 10.6875H3C2.63533 10.6875 2.28559 10.8324 2.02773 11.0902C1.76986 11.3481 1.625 11.6978 1.625 12.0625V28.5625C1.625 28.9272 1.76986 29.2769 2.02773 29.5348C2.28559 29.7926 2.63533 29.9375 3 29.9375H25C25.3647 29.9375 25.7144 29.7926 25.9723 29.5348C26.2301 29.2769 26.375 28.9272 26.375 28.5625V12.0625C26.375 11.6978 26.2301 11.3481 25.9723 11.0902C25.7144 10.8324 25.3647 10.6875 25 10.6875H22.25V9.3125C22.25 7.12446 21.3808 5.02604 19.8336 3.47887C18.2865 1.93169 16.188 1.0625 14 1.0625C11.812 1.0625 9.71354 1.93169 8.16637 3.47887C6.61919 5.02604 5.75 7.12446 5.75 9.3125V10.6875ZM8.5 10.6875V9.3125C8.5 7.85381 9.07946 6.45486 10.1109 5.42341C11.1424 4.39196 12.5413 3.8125 14 3.8125C15.4587 3.8125 16.8576 4.39196 17.8891 5.42341C18.9205 6.45486 19.5 7.85381 19.5 9.3125V10.6875H8.5ZM15.375 18.9375V21.6875H12.625V18.9375H15.375ZM20.875 18.9375V21.6875H18.125V18.9375H20.875ZM9.875 18.9375V21.6875H7.125V18.9375H9.875Z" fill="#E8CBAE"/>
</g>
<defs>
<filter id="filter0_d_232:3053" x="0.425" y="0.8625" width="27.15" height="31.275" filterUnits="userSpaceOnUse" color-interpolation-filters="sRGB">
<feFlood flood-opacity="0" result="BackgroundImageFix"/>
<feColorMatrix in="SourceAlpha" type="matrix" values="0 0 0 0 0 0 0 0 0 0 0 0 0 0 0 0 0 0 127 0" result="hardAlpha"/>
<feOffset dy="1"/>
<feGaussianBlur stdDeviation="0.6"/>
<feComposite in2="hardAlpha" operator="out"/>
<feColorMatrix type="matrix" values="0 0 0 0 0 0 0 0 0 0 0 0 0 0 0 0 0 0 0.15 0"/>
<feBlend mode="normal" in2="BackgroundImageFix" result="effect1_dropShadow_232:3053"/>
<feBlend mode="normal" in="SourceGraphic" in2="effect1_dropShadow_232:3053" result="shape"/>
</filter>
</defs>
</svg>
