<svg width="97" height="28" viewBox="0 0 97 28" fill="none" xmlns="http://www.w3.org/2000/svg">
<path d="M3.11459 3.29545V0.676772H0.328762V3.29545H3.11459ZM2.83601 6.74988H0.551629V21.1248H2.83601V6.74988ZM6.45759 19.4533C7.85051 20.679 9.74487 21.3476 12.1964 21.3476C15.6508 21.3476 17.8238 19.7319 17.8238 17.2246C17.8238 15.2188 16.5423 13.993 13.8679 13.3244L11.4721 12.7116C9.91202 12.3773 9.24342 11.7087 9.24342 10.5386C9.24342 9.1457 10.4135 8.30995 12.475 8.30995C13.9793 8.30995 15.428 8.86712 16.7652 9.98145L17.5452 8.30995C16.3194 7.08418 14.4808 6.41558 12.475 6.41558C9.13199 6.41558 6.95904 8.19852 6.95904 10.7058C6.95904 12.6001 8.29624 13.993 10.6921 14.5502L13.1436 15.1074C14.8708 15.5531 15.5951 16.166 15.5951 17.2803C15.5951 18.6732 14.4251 19.4533 12.3078 19.4533C10.302 19.4533 8.79769 19.0075 7.23762 17.7818L6.45759 19.4533ZM37.9375 18.6175L33.0901 6.74988H30.6386L36.7117 20.9576L36.1546 22.2391C35.7088 23.2977 35.0959 24.0778 34.4273 24.5792C33.703 25.0807 32.7001 25.4707 31.3629 25.805L31.8644 27.5879C34.9288 27.0307 37.046 25.6935 38.4389 22.462L45.1249 6.74988H42.8405L37.9375 18.6175ZM46.8521 13.8816C46.8521 18.3947 49.5265 21.3476 53.5939 21.3476C57.7169 21.3476 60.3913 18.3947 60.3913 13.8816C60.3913 9.36857 57.7169 6.41558 53.5939 6.41558C49.5265 6.41558 46.8521 9.36857 46.8521 13.8816ZM58.0512 13.8816C58.0512 17.5032 56.4911 19.3976 53.5939 19.3976C50.7523 19.3976 49.1922 17.5032 49.1922 13.8816C49.1922 10.3715 50.808 8.36567 53.5939 8.36567C56.3797 8.36567 58.0512 10.3715 58.0512 13.8816ZM73.7076 14.8845C73.7076 17.6146 71.9803 19.3976 69.4731 19.3976C67.3001 19.3976 66.2415 18.2275 66.2415 15.6088V6.74988H63.9014V15.6645C63.9014 19.3976 65.6844 21.3476 69.0831 21.3476C71.1446 21.3476 72.8718 20.4005 73.7633 18.6175V21.1248H75.9919V6.74988H73.7076V14.8845ZM82.9008 21.1248V18.1718H79.9478V21.1248H82.9008ZM89.5311 21.1248V18.1718H86.5781V21.1248H89.5311ZM96.1614 21.1248V18.1718H93.2084V21.1248H96.1614Z" fill="white"/>
</svg>
