<svg width="280" height="34" viewBox="0 0 280 34" fill="none" xmlns="http://www.w3.org/2000/svg">
<path d="M16.414 16.3898C20.2837 16.6874 23.1265 17.5805 24.9423 19.0688C26.7581 20.5572 27.666 22.3135 27.666 24.3377C27.666 27.106 26.5795 29.2493 24.4065 30.7674C22.2335 32.2558 19.2121 33 15.3423 33C14.4791 33 13.7498 32.9851 13.1544 32.9553C11.1898 32.8958 9.26977 32.866 7.39442 32.866C4.32837 32.866 2.03628 32.9107 0.51814 33V32.107C1.50047 32.0474 2.21488 31.9284 2.6614 31.7498C3.13767 31.5712 3.45023 31.2288 3.59907 30.7228C3.77767 30.2167 3.86698 29.3981 3.86698 28.267V6.12C3.86698 4.98884 3.77767 4.17023 3.59907 3.66419C3.45023 3.15814 3.13767 2.81581 2.6614 2.63721C2.21488 2.4586 1.50047 2.33953 0.51814 2.28V1.38698C2.03628 1.47628 4.2986 1.52093 7.30512 1.52093L12.2614 1.47628C12.8567 1.44651 13.5414 1.43163 14.3153 1.43163C17.8874 1.43163 20.6112 2.07163 22.4865 3.35163C24.3916 4.63163 25.3442 6.32837 25.3442 8.44186C25.3442 10.1684 24.5851 11.7758 23.067 13.2642C21.5786 14.7526 19.3609 15.7647 16.414 16.3005V16.3898ZM13.7349 2.28C12.9312 2.28 12.3358 2.38419 11.9488 2.59256C11.5916 2.80093 11.3386 3.17302 11.1898 3.70884C11.0409 4.24465 10.9665 5.04837 10.9665 6.12V16.2112H12.8865C14.8214 16.2112 16.1758 15.5563 16.9498 14.2465C17.7237 12.907 18.1107 11.1358 18.1107 8.93302C18.1107 6.70046 17.7535 5.03349 17.0391 3.93209C16.3544 2.8307 15.253 2.28 13.7349 2.28ZM14.0474 31.973C18.1851 31.973 20.254 29.3684 20.254 24.1591C20.254 21.8074 19.6586 20.0214 18.4679 18.8009C17.2772 17.5805 15.4019 16.9702 12.8419 16.9702H10.9665V28.267C10.9665 29.3386 11.0409 30.1274 11.1898 30.6335C11.3386 31.1395 11.6214 31.4967 12.0381 31.7051C12.4847 31.8837 13.1544 31.973 14.0474 31.973ZM46.7265 0.761859C49.8819 0.761859 52.6353 1.40186 54.987 2.68186C57.3684 3.96186 59.214 5.82233 60.5237 8.26326C61.8335 10.6744 62.4884 13.5619 62.4884 16.9256C62.4884 20.2 61.8186 23.1023 60.4791 25.6326C59.1395 28.1628 57.2642 30.1274 54.853 31.5265C52.4716 32.9256 49.7479 33.6251 46.6819 33.6251C43.5265 33.6251 40.7581 32.9851 38.3767 31.7051C36.0251 30.4251 34.1944 28.5795 32.8846 26.1684C31.5749 23.7274 30.92 20.8251 30.92 17.4614C30.92 14.187 31.5898 11.2847 32.9293 8.75442C34.2688 6.22419 36.1293 4.25954 38.5107 2.86047C40.9219 1.46139 43.6605 0.761859 46.7265 0.761859ZM46.5479 1.56558C44.9107 1.56558 43.467 2.23535 42.2167 3.57488C40.9665 4.88465 39.9991 6.73023 39.3144 9.11163C38.6595 11.493 38.3321 14.2167 38.3321 17.2828C38.3321 20.3786 38.7042 23.1023 39.4484 25.454C40.2223 27.8056 41.2493 29.6214 42.5293 30.9014C43.8391 32.1814 45.2828 32.8214 46.8605 32.8214C48.4977 32.8214 49.9414 32.1665 51.1916 30.8567C52.4419 29.5172 53.3944 27.6567 54.0493 25.2753C54.734 22.894 55.0763 20.1702 55.0763 17.1042C55.0763 14.0084 54.6893 11.2847 53.9153 8.93302C53.1712 6.58139 52.1442 4.76558 50.8344 3.48558C49.5544 2.20558 48.1256 1.56558 46.5479 1.56558ZM82.1335 0.761859C85.2888 0.761859 88.0423 1.40186 90.394 2.68186C92.7753 3.96186 94.6209 5.82233 95.9307 8.26326C97.2405 10.6744 97.8953 13.5619 97.8953 16.9256C97.8953 20.2 97.2256 23.1023 95.886 25.6326C94.5465 28.1628 92.6712 30.1274 90.26 31.5265C87.8786 32.9256 85.1549 33.6251 82.0888 33.6251C78.9335 33.6251 76.1651 32.9851 73.7837 31.7051C71.4321 30.4251 69.6014 28.5795 68.2916 26.1684C66.9819 23.7274 66.327 20.8251 66.327 17.4614C66.327 14.187 66.9967 11.2847 68.3363 8.75442C69.6758 6.22419 71.5363 4.25954 73.9177 2.86047C76.3288 1.46139 79.0674 0.761859 82.1335 0.761859ZM81.9549 1.56558C80.3177 1.56558 78.874 2.23535 77.6237 3.57488C76.3735 4.88465 75.406 6.73023 74.7214 9.11163C74.0665 11.493 73.7391 14.2167 73.7391 17.2828C73.7391 20.3786 74.1112 23.1023 74.8553 25.454C75.6293 27.8056 76.6563 29.6214 77.9363 30.9014C79.246 32.1814 80.6898 32.8214 82.2674 32.8214C83.9046 32.8214 85.3484 32.1665 86.5986 30.8567C87.8488 29.5172 88.8014 27.6567 89.4563 25.2753C90.1409 22.894 90.4833 20.1702 90.4833 17.1042C90.4833 14.0084 90.0963 11.2847 89.3223 8.93302C88.5781 6.58139 87.5512 4.76558 86.2414 3.48558C84.9614 2.20558 83.5326 1.56558 81.9549 1.56558ZM128.578 29.3833C129.024 30.0679 129.486 30.6186 129.962 31.0353C130.438 31.4521 131.048 31.8093 131.793 32.107V33C129.709 32.9107 127.387 32.866 124.827 32.866C122.862 32.866 120.972 32.9107 119.156 33V32.107C119.99 32.0474 120.585 31.9581 120.942 31.8391C121.329 31.72 121.523 31.5116 121.523 31.214C121.523 30.9758 121.359 30.6037 121.032 30.0977L114.557 19.6047C113.962 18.6521 113.456 18.0121 113.039 17.6847C112.652 17.3572 112.116 17.1637 111.432 17.1042V28.267C111.432 29.3981 111.506 30.2167 111.655 30.7228C111.833 31.2288 112.146 31.5712 112.593 31.7498C113.039 31.9284 113.768 32.0474 114.78 32.107V33C113.173 32.9107 110.926 32.866 108.038 32.866C104.853 32.866 102.501 32.9107 100.983 33V32.107C101.966 32.0474 102.68 31.9284 103.127 31.7498C103.603 31.5712 103.915 31.2288 104.064 30.7228C104.243 30.2167 104.332 29.3981 104.332 28.267V6.12C104.332 4.98884 104.243 4.17023 104.064 3.66419C103.915 3.15814 103.603 2.81581 103.127 2.63721C102.68 2.4586 101.966 2.33953 100.983 2.28V1.38698C102.501 1.47628 104.853 1.52093 108.038 1.52093C110.926 1.52093 113.173 1.47628 114.78 1.38698V2.28C113.768 2.33953 113.039 2.4586 112.593 2.63721C112.146 2.81581 111.833 3.15814 111.655 3.66419C111.506 4.17023 111.432 4.98884 111.432 6.12V16.1665C112.622 16.107 113.709 15.7498 114.691 15.0949C115.673 14.44 116.79 13.3981 118.04 11.9693L120.674 8.79907C122.044 7.22139 122.728 5.83721 122.728 4.64651C122.728 3.93209 122.431 3.36651 121.835 2.94977C121.27 2.53302 120.466 2.29488 119.424 2.23535V1.38698C121.597 1.47628 123.8 1.52093 126.033 1.52093C127.759 1.52093 129.158 1.47628 130.23 1.38698V2.23535C127.848 2.80093 125.69 4.22977 123.755 6.52186L118.174 13.1749L128.578 29.3833ZM144.021 0.806512C145.569 0.806512 146.804 0.955349 147.727 1.25302C148.65 1.5507 149.588 1.98233 150.54 2.54791C150.868 2.72651 151.15 2.87535 151.388 2.99442C151.656 3.11349 151.88 3.17302 152.058 3.17302C152.326 3.17302 152.535 3.02419 152.683 2.72651C152.832 2.39907 152.951 1.89302 153.041 1.20837H154.068C153.919 3.20279 153.844 6.59628 153.844 11.3888H152.817C152.698 9.78139 152.326 8.24837 151.701 6.78977C151.106 5.33116 150.242 4.15535 149.111 3.26233C148.01 2.33954 146.715 1.87814 145.227 1.87814C143.768 1.87814 142.577 2.29488 141.655 3.12837C140.762 3.93209 140.315 5.03349 140.315 6.43256C140.315 7.47442 140.538 8.38233 140.985 9.15628C141.431 9.93023 142.056 10.6447 142.86 11.2995C143.664 11.9247 144.899 12.7879 146.566 13.8893L147.995 14.8716C149.751 16.0326 151.135 17.0447 152.148 17.9079C153.16 18.7712 153.978 19.7833 154.603 20.9442C155.258 22.0753 155.586 23.4 155.586 24.9181C155.586 26.8233 155.095 28.4307 154.112 29.7405C153.13 31.0205 151.79 31.9879 150.094 32.6428C148.427 33.2977 146.566 33.6251 144.512 33.6251C142.845 33.6251 141.461 33.4763 140.36 33.1786C139.258 32.8809 138.246 32.4791 137.323 31.973C136.668 31.5563 136.162 31.3479 135.805 31.3479C135.537 31.3479 135.329 31.5116 135.18 31.8391C135.031 32.1367 134.912 32.6279 134.823 33.3126H133.796C133.915 31.4372 133.975 27.4186 133.975 21.2567H135.002C135.21 24.5907 135.954 27.2995 137.234 29.3833C138.514 31.4372 140.479 32.4642 143.128 32.4642C144.735 32.4642 146.06 32.0326 147.102 31.1693C148.144 30.306 148.665 29.0707 148.665 27.4633C148.665 25.7963 148.129 24.3674 147.057 23.1767C145.986 21.986 144.289 20.6465 141.967 19.1581C140.181 17.9972 138.752 16.9851 137.681 16.1219C136.609 15.2586 135.731 14.2465 135.046 13.0856C134.362 11.8949 134.019 10.5256 134.019 8.97767C134.019 7.19163 134.466 5.68837 135.359 4.46791C136.282 3.21767 137.502 2.29488 139.02 1.69953C140.538 1.10419 142.205 0.806512 144.021 0.806512ZM186.082 1.38698C185.873 4.21488 185.769 6.74512 185.769 8.97767C185.769 10.3767 185.814 11.5079 185.903 12.3712H184.876C184.162 8.70977 183.179 6.13488 181.929 4.64651C180.709 3.15814 179.027 2.41395 176.884 2.41395H175.857V27.9098C175.857 29.16 175.976 30.0679 176.214 30.6335C176.482 31.1991 176.928 31.586 177.553 31.7944C178.208 31.973 179.235 32.0772 180.634 32.107V33C176.884 32.9107 174.056 32.866 172.151 32.866C170.275 32.866 167.552 32.9107 163.979 33V32.107C165.378 32.0772 166.391 31.973 167.016 31.7944C167.671 31.586 168.117 31.1991 168.355 30.6335C168.623 30.0679 168.757 29.16 168.757 27.9098V2.41395H167.775C166.346 2.41395 165.125 2.72651 164.113 3.35163C163.131 3.97674 162.283 5.0186 161.568 6.47721C160.854 7.90605 160.244 9.8707 159.738 12.3712H158.711C158.8 11.5079 158.845 10.3767 158.845 8.97767C158.845 6.74512 158.74 4.21488 158.532 1.38698C161.241 1.47628 165.84 1.52093 172.329 1.52093C178.818 1.52093 183.403 1.47628 186.082 1.38698ZM204.968 0.761859C208.123 0.761859 210.877 1.40186 213.228 2.68186C215.61 3.96186 217.455 5.82233 218.765 8.26326C220.075 10.6744 220.73 13.5619 220.73 16.9256C220.73 20.2 220.06 23.1023 218.72 25.6326C217.381 28.1628 215.505 30.1274 213.094 31.5265C210.713 32.9256 207.989 33.6251 204.923 33.6251C201.768 33.6251 198.999 32.9851 196.618 31.7051C194.266 30.4251 192.436 28.5795 191.126 26.1684C189.816 23.7274 189.161 20.8251 189.161 17.4614C189.161 14.187 189.831 11.2847 191.171 8.75442C192.51 6.22419 194.371 4.25954 196.752 2.86047C199.163 1.46139 201.902 0.761859 204.968 0.761859ZM204.789 1.56558C203.152 1.56558 201.708 2.23535 200.458 3.57488C199.208 4.88465 198.24 6.73023 197.556 9.11163C196.901 11.493 196.573 14.2167 196.573 17.2828C196.573 20.3786 196.945 23.1023 197.69 25.454C198.464 27.8056 199.491 29.6214 200.771 30.9014C202.08 32.1814 203.524 32.8214 205.102 32.8214C206.739 32.8214 208.183 32.1665 209.433 30.8567C210.683 29.5172 211.636 27.6567 212.291 25.2753C212.975 22.894 213.318 20.1702 213.318 17.1042C213.318 14.0084 212.931 11.2847 212.157 8.93302C211.412 6.58139 210.385 4.76558 209.076 3.48558C207.796 2.20558 206.367 1.56558 204.789 1.56558ZM254.091 31.0353C253.287 31.9581 252.424 32.613 251.501 33C250.578 33.4167 249.462 33.6251 248.152 33.6251C246.426 33.6251 245.057 33.2679 244.045 32.5535C243.062 31.8093 242.422 30.5591 242.125 28.8028L241.321 24.3377C240.934 22.1647 240.458 20.5721 239.892 19.56C239.356 18.5181 238.448 17.9972 237.168 17.9972H234.266V28.267C234.266 29.3981 234.34 30.2167 234.489 30.7228C234.668 31.2288 234.98 31.5712 235.427 31.7498C235.873 31.9284 236.603 32.0474 237.615 32.107V33C236.007 32.9107 233.76 32.866 230.872 32.866C227.687 32.866 225.336 32.9107 223.818 33V32.107C224.8 32.0474 225.514 31.9284 225.961 31.7498C226.437 31.5712 226.75 31.2288 226.898 30.7228C227.077 30.2167 227.166 29.3981 227.166 28.267V6.12C227.166 4.98884 227.077 4.17023 226.898 3.66419C226.75 3.15814 226.437 2.81581 225.961 2.63721C225.514 2.4586 224.8 2.33953 223.818 2.28V1.38698C225.336 1.47628 227.598 1.52093 230.605 1.52093L235.561 1.47628C236.156 1.44651 236.841 1.43163 237.615 1.43163C241.723 1.43163 244.804 2.1014 246.858 3.44093C248.941 4.78046 249.983 6.70046 249.983 9.20093C249.983 11.3144 249.209 13.1749 247.661 14.7823C246.113 16.3898 243.553 17.4019 239.981 17.8186C242.66 18.0567 244.655 18.6372 245.965 19.56C247.274 20.4828 248.123 21.867 248.51 23.7126L249.537 28.3116C249.775 29.5023 250.043 30.3358 250.34 30.8121C250.668 31.2884 251.114 31.5265 251.68 31.5265C252.037 31.4967 252.335 31.4074 252.573 31.2586C252.841 31.1098 253.138 30.8567 253.466 30.4995L254.091 31.0353ZM237.034 2.28C236.231 2.28 235.635 2.38419 235.248 2.59256C234.891 2.80093 234.638 3.17302 234.489 3.70884C234.34 4.24465 234.266 5.04837 234.266 6.12V17.1042H236.186C238.627 17.1042 240.294 16.4642 241.187 15.1842C242.11 13.8744 242.571 12.0437 242.571 9.69209C242.571 7.25116 242.139 5.40558 241.276 4.15535C240.413 2.90512 238.999 2.28 237.034 2.28ZM279.202 26.213C279.202 28.9516 279.306 31.214 279.515 33C277.49 32.9107 274.082 32.866 269.29 32.866C262.8 32.866 257.948 32.9107 254.733 33V32.107C255.716 32.0474 256.43 31.9284 256.876 31.7498C257.353 31.5712 257.665 31.2288 257.814 30.7228C257.993 30.2167 258.082 29.3981 258.082 28.267V6.12C258.082 4.98884 257.993 4.17023 257.814 3.66419C257.665 3.15814 257.353 2.81581 256.876 2.63721C256.43 2.4586 255.716 2.33953 254.733 2.28V1.38698C257.948 1.47628 262.8 1.52093 269.29 1.52093C273.665 1.52093 276.776 1.47628 278.622 1.38698C278.413 3.85768 278.309 6.06047 278.309 7.99535C278.309 9.30512 278.354 10.3172 278.443 11.0316H277.416C276.97 7.84651 276.166 5.61395 275.005 4.33395C273.844 3.05395 272.207 2.41395 270.093 2.41395H268.263C267.34 2.41395 266.67 2.48837 266.253 2.63721C265.836 2.78605 265.554 3.08372 265.405 3.53023C265.256 3.94698 265.182 4.63163 265.182 5.58419V16.6577H266.61C268.188 16.6577 269.379 16.0772 270.183 14.9163C271.016 13.7553 271.596 12.3712 271.924 10.7637H272.951C272.862 12.014 272.817 13.413 272.817 14.9609V17.1042C272.817 18.6223 272.906 20.7358 273.085 23.4447H272.058C271.433 19.5153 269.617 17.5507 266.61 17.5507H265.182V28.8028C265.182 29.7553 265.256 30.4549 265.405 30.9014C265.554 31.3181 265.836 31.6009 266.253 31.7498C266.67 31.8986 267.34 31.973 268.263 31.973H270.45C272.564 31.973 274.261 31.2586 275.541 29.8298C276.85 28.3712 277.773 25.9153 278.309 22.4623H279.336C279.247 23.4447 279.202 24.6949 279.202 26.213Z" fill="#EFECEA"/>
</svg>
