<svg width="145" height="21" viewBox="0 0 145 21" fill="none" xmlns="http://www.w3.org/2000/svg">
<path d="M7.38581 8.13475L2.63739 0.766507H0.631588L6.48524 9.64933V15.7077H8.2045V9.69026L14.0582 0.766507H12.0933L7.38581 8.13475ZM15.4499 10.3862C15.4499 13.7019 17.4148 15.8714 20.403 15.8714C23.4322 15.8714 25.3971 13.7019 25.3971 10.3862C25.3971 7.07044 23.4322 4.90091 20.403 4.90091C17.4148 4.90091 15.4499 7.07044 15.4499 10.3862ZM23.6778 10.3862C23.6778 13.0469 22.5316 14.4387 20.403 14.4387C18.3154 14.4387 17.1692 13.0469 17.1692 10.3862C17.1692 7.80727 18.3563 6.33362 20.403 6.33362C22.4498 6.33362 23.6778 7.80727 23.6778 10.3862ZM35.1804 11.123C35.1804 13.1288 33.9115 14.4387 32.0694 14.4387C30.473 14.4387 29.6952 13.5791 29.6952 11.6551V5.14652H27.9759V11.6961C27.9759 14.4387 29.2859 15.8714 31.7829 15.8714C33.2974 15.8714 34.5664 15.1755 35.2214 13.8656V15.7077H36.8588V5.14652H35.1804V11.123ZM45.9053 5.02371C45.6188 4.94184 45.2913 4.90091 44.9638 4.90091C43.4492 4.90091 42.1803 5.67867 41.6481 7.11138L41.4844 5.14652H39.8879C39.9698 6.04708 40.0517 7.02951 40.0517 8.13475V15.7077H41.73V9.69026C41.73 8.7897 42.0165 8.01194 42.4668 7.39792C42.999 6.74297 43.7358 6.41549 44.7592 6.41549C45.1685 6.41549 45.5778 6.49736 45.8644 6.57923L45.9053 5.02371ZM56.5893 10.3862C56.5893 13.7019 58.5541 15.8714 61.5424 15.8714C64.5715 15.8714 66.5364 13.7019 66.5364 10.3862C66.5364 7.07044 64.5715 4.90091 61.5424 4.90091C58.5541 4.90091 56.5893 7.07044 56.5893 10.3862ZM64.8171 10.3862C64.8171 13.0469 63.671 14.4387 61.5424 14.4387C59.4547 14.4387 58.3085 13.0469 58.3085 10.3862C58.3085 7.80727 59.4956 6.33362 61.5424 6.33362C63.5891 6.33362 64.8171 7.80727 64.8171 10.3862ZM78.2437 9.07624C78.2437 6.29269 76.9747 4.90091 74.4368 4.90091C72.7994 4.90091 71.4486 5.67867 70.7936 7.07044L70.6299 5.14652H69.0334C69.1153 6.04708 69.1971 7.02951 69.1971 8.13475V15.7077H70.8755V9.69026C70.8755 7.64353 72.1854 6.33362 74.1093 6.33362C75.7876 6.33362 76.5654 7.23418 76.5654 9.15811V15.7077H78.2437V9.07624ZM83.0331 0.275291H81.3547V15.7077H83.0331V0.275291ZM90.2785 13.8656L86.7172 5.14652H84.9161L89.3779 15.5849L88.9686 16.5264C88.6411 17.3041 88.1908 17.8772 87.6996 18.2456C87.1675 18.614 86.4306 18.9006 85.4482 19.1462L85.8166 20.4561C88.068 20.0467 89.6236 19.0643 90.6469 16.6901L95.5591 5.14652H93.8808L90.2785 13.8656ZM107.307 0.275291H105.629V15.7077H107.307V0.275291ZM112.465 2.60857V0.684637H110.418V2.60857H112.465ZM112.26 5.14652H110.582V15.7077H112.26V5.14652ZM130.763 9.07624C130.763 6.29269 129.576 4.90091 127.283 4.90091C125.687 4.90091 124.377 5.7196 123.763 6.94764C123.231 5.55586 122.208 4.90091 120.529 4.90091C118.974 4.90091 117.787 5.67867 117.173 7.02951L117.009 5.14652H115.412C115.494 6.04708 115.576 7.02951 115.576 8.13475V15.7077H117.254V9.69026C117.254 7.6026 118.36 6.33362 120.161 6.33362C121.675 6.33362 122.33 7.23418 122.33 9.15811V15.7077H124.05V9.69026C124.05 7.6026 125.114 6.33362 126.874 6.33362C128.43 6.33362 129.085 7.19325 129.085 9.15811V15.7077H130.763V9.07624ZM135.757 2.60857V0.684637H133.71V2.60857H135.757ZM135.552 5.14652H133.874V15.7077H135.552V5.14652ZM144.149 5.14652H141.119V1.87174L139.441 2.44483V5.14652H137.394V6.49736H139.441V12.5148C139.441 14.6843 140.628 15.8714 142.634 15.8714C143.166 15.8714 143.657 15.7895 144.108 15.6258V14.1931C143.739 14.3159 143.371 14.3977 142.961 14.3977C141.815 14.3977 141.119 13.8247 141.119 12.2691V6.49736H144.149V5.14652Z" fill="white"/>
</svg>
