<?xml version="1.0" encoding="utf-8"?>
<!-- Generator: Adobe Illustrator 24.1.2, SVG Export Plug-In . SVG Version: 6.00 Build 0)  -->
<svg version="1.1" id="Layer_1" xmlns="http://www.w3.org/2000/svg" xmlns:xlink="http://www.w3.org/1999/xlink" x="0px" y="0px"
	 viewBox="0 0 80 75" style="enable-background:new 0 0 80 75;" xml:space="preserve">
<style type="text/css">
	.st0{fill:url(#SVGID_1_);}
	.st1{fill:url(#SVGID_2_);}
	.st2{fill:#2E2B2C;}
	.st3{fill:url(#SVGID_3_);}
</style>
<linearGradient id="SVGID_1_" gradientUnits="userSpaceOnUse" x1="38.5043" y1="46.4333" x2="38.5043" y2="17.507" gradientTransform="matrix(1 0 0 -1 0 76)">
	<stop  offset="0.1594" style="stop-color:#FFBF42"/>
	<stop  offset="1" style="stop-color:#A76D1C"/>
</linearGradient>
<path class="st0" d="M28.1,42.9v-12V19.4h11.5c2,0,3.6,0.3,4.8,1c1.2,0.6,2,1.4,2.6,2.4c0.5,0.9,0.8,1.9,0.8,2.8
	c0,1.5-0.3,2.7-1,3.5c-0.7,0.8-1.5,1.4-2.4,1.8c0.7,0.2,1.4,0.6,2.2,1c0.7,0.4,1.4,1.1,1.9,1.8s0.7,1.8,0.7,2.9
	c0,1.7-0.7,3.2-2.2,4.4c-1.4,1.2-3.6,1.8-6.5,1.8h-6.1H28.1z M31,29.9h8.6c0.9,0,1.7-0.1,2.5-0.4c0.8-0.3,1.4-0.7,1.9-1.3
	c0.5-0.6,0.7-1.4,0.7-2.3c0-0.7-0.2-1.3-0.5-1.9c-0.3-0.6-0.8-1.1-1.5-1.5c-0.7-0.4-1.6-0.6-2.8-0.6H31V29.9z M31,40.3h9.5
	c1.8,0,3.1-0.3,4.1-1c1-0.7,1.5-1.6,1.5-2.9c0-1.1-0.5-2.1-1.4-2.9c-0.9-0.9-2.4-1.3-4.4-1.3H31V40.3z"/>
<linearGradient id="SVGID_2_" gradientUnits="userSpaceOnUse" x1="38.5043" y1="46.4333" x2="38.5043" y2="17.507" gradientTransform="matrix(1 0 0 -1 0 76)">
	<stop  offset="0.1594" style="stop-color:#FFBF42"/>
	<stop  offset="1" style="stop-color:#A76D1C"/>
</linearGradient>
<path class="st1" d="M28.1,42.9v-12V19.4h11.5c2,0,3.6,0.3,4.8,1c1.2,0.6,2,1.4,2.6,2.4c0.5,0.9,0.8,1.9,0.8,2.8
	c0,1.5-0.3,2.7-1,3.5c-0.7,0.8-1.5,1.4-2.4,1.8c0.7,0.2,1.4,0.6,2.2,1c0.7,0.4,1.4,1.1,1.9,1.8s0.7,1.8,0.7,2.9
	c0,1.7-0.7,3.2-2.2,4.4c-1.4,1.2-3.6,1.8-6.5,1.8h-6.1H28.1z M31,29.9h8.6c0.9,0,1.7-0.1,2.5-0.4c0.8-0.3,1.4-0.7,1.9-1.3
	c0.5-0.6,0.7-1.4,0.7-2.3c0-0.7-0.2-1.3-0.5-1.9c-0.3-0.6-0.8-1.1-1.5-1.5c-0.7-0.4-1.6-0.6-2.8-0.6H31V29.9z M31,40.3h9.5
	c1.8,0,3.1-0.3,4.1-1c1-0.7,1.5-1.6,1.5-2.9c0-1.1-0.5-2.1-1.4-2.9c-0.9-0.9-2.4-1.3-4.4-1.3H31V40.3z"/>
<path class="st2" d="M53.6,50.4C41.5,52.7,37.4,60,37.4,60s4.4-3.8,13.4-5.8c9-2,22.4-0.9,22.4-0.9s0-1,0.3-2c0.3-1,0.9-1.7,0.9-1.7
	S65.8,48.2,53.6,50.4z"/>
<path class="st2" d="M20.9,50.4C33,52.7,37.4,60,37.4,60s-4.7-3.8-13.7-5.8c-9-2-22.4-0.9-22.4-0.9s0-1-0.3-2
	c-0.3-1-0.9-1.7-0.9-1.7S8.7,48.2,20.9,50.4z"/>
<path class="st2" d="M37.4,0L4.1,18.3v9.1L10,24v15.4l8.7,2.3V19.4L37.4,9.1l19.3,10.3v22.3l8.7-2.3V24l5.6,3.4v-9.1L37.4,0z"/>
<path class="st2" d="M51.4,45.1c-9,3.4-12.8,10.3-12.8,10.3s4.4-4.6,11.8-6.9C58,46.3,67,45.7,67,45.7s-0.3-0.9-0.3-2
	c0-1.1,0.3-2,0.3-2S60.5,41.7,51.4,45.1z"/>
<path class="st2" d="M23.7,45.1c9,3.4,12.8,10.3,12.8,10.3s-4.4-4.6-11.8-6.9c-7.5-2.3-16.5-2.9-16.5-2.9s0.3-0.6,0.3-2
	c0-1.4-0.3-2-0.3-2S14.7,41.7,23.7,45.1z"/>
<linearGradient id="SVGID_3_" gradientUnits="userSpaceOnUse" x1="37.4467" y1="11" x2="37.4467" y2="3" gradientTransform="matrix(1 0 0 -1 0 76)">
	<stop  offset="0.1594" style="stop-color:#FFBF42"/>
	<stop  offset="1" style="stop-color:#A76D1C"/>
</linearGradient>
<path class="st3" d="M8.8,65c0.5,0.1,0.8,0.4,1,0.7c0.2,0.3,0.4,0.7,0.4,1.2c0,0.7-0.2,1.2-0.7,1.6C9,68.8,8.3,69,7.5,69H3.8v-7.8
	h3.6c0.8,0,1.4,0.2,1.9,0.5c0.5,0.4,0.7,0.8,0.7,1.5c0,0.4-0.1,0.8-0.3,1.1C9.4,64.6,9.1,64.9,8.8,65z M5.4,64.4h1.6
	c0.4,0,0.8-0.1,1-0.2c0.2-0.2,0.3-0.4,0.3-0.7c0-0.3-0.1-0.6-0.3-0.7c-0.2-0.2-0.5-0.2-1-0.2H5.4V64.4z M7.3,67.7
	c0.5,0,0.8-0.1,1-0.2c0.2-0.2,0.3-0.4,0.3-0.8c0-0.3-0.1-0.6-0.3-0.8c-0.2-0.2-0.5-0.2-1-0.2H5.4v2H7.3z M14.9,69.1
	c-0.8,0-1.4-0.2-2-0.5c-0.6-0.3-1-0.8-1.3-1.4c-0.3-0.6-0.5-1.3-0.5-2.1c0-0.8,0.2-1.5,0.5-2.1c0.3-0.6,0.8-1.1,1.3-1.4
	c0.6-0.3,1.2-0.5,2-0.5c0.8,0,1.4,0.2,2,0.5c0.6,0.3,1,0.8,1.3,1.4c0.3,0.6,0.5,1.3,0.5,2.1c0,0.8-0.2,1.5-0.5,2.1
	c-0.3,0.6-0.7,1.1-1.3,1.4C16.4,68.9,15.7,69.1,14.9,69.1z M14.9,67.8c0.7,0,1.2-0.2,1.5-0.7c0.4-0.5,0.6-1.1,0.6-2
	c0-0.9-0.2-1.5-0.6-2c-0.4-0.5-0.9-0.7-1.5-0.7s-1.2,0.2-1.5,0.7c-0.4,0.5-0.5,1.1-0.5,2c0,0.9,0.2,1.5,0.5,2
	C13.8,67.5,14.3,67.8,14.9,67.8z M23.6,69.1c-0.8,0-1.4-0.2-2-0.5c-0.6-0.3-1-0.8-1.3-1.4c-0.3-0.6-0.5-1.3-0.5-2.1
	c0-0.8,0.2-1.5,0.5-2.1c0.3-0.6,0.8-1.1,1.3-1.4c0.6-0.3,1.2-0.5,2-0.5s1.4,0.2,2,0.5c0.6,0.3,1,0.8,1.3,1.4
	c0.3,0.6,0.5,1.3,0.5,2.1c0,0.8-0.2,1.5-0.5,2.1c-0.3,0.6-0.7,1.1-1.3,1.4C25,68.9,24.4,69.1,23.6,69.1z M23.6,67.8
	c0.7,0,1.2-0.2,1.5-0.7c0.4-0.5,0.6-1.1,0.6-2c0-0.9-0.2-1.5-0.6-2c-0.4-0.5-0.9-0.7-1.5-0.7c-0.7,0-1.2,0.2-1.5,0.7
	c-0.4,0.5-0.5,1.1-0.5,2c0,0.9,0.2,1.5,0.5,2C22.4,67.5,22.9,67.8,23.6,67.8z M33.8,69l-3.4-3.6V69h-1.7v-7.8h1.7v3.4l3.3-3.4h2
	l-3.6,3.7l3.7,4.1H33.8z M38.7,69.1c-0.6,0-1.2-0.1-1.7-0.2c-0.5-0.2-1-0.4-1.3-0.7l0.5-1.2c0.7,0.5,1.6,0.8,2.5,0.8
	c0.5,0,0.9-0.1,1.1-0.2c0.3-0.2,0.4-0.4,0.4-0.7c0-0.2-0.1-0.4-0.4-0.6c-0.2-0.1-0.7-0.3-1.3-0.4c-0.7-0.1-1.2-0.3-1.6-0.5
	c-0.4-0.2-0.7-0.4-0.9-0.7c-0.2-0.3-0.3-0.7-0.3-1.1c0-0.5,0.1-0.9,0.4-1.3c0.3-0.4,0.6-0.7,1.1-0.9c0.5-0.2,1-0.3,1.6-0.3
	c0.6,0,1.1,0.1,1.6,0.2c0.5,0.2,0.9,0.4,1.2,0.7l-0.5,1.2c-0.7-0.5-1.4-0.8-2.3-0.8c-0.4,0-0.8,0.1-1,0.3c-0.3,0.2-0.4,0.4-0.4,0.7
	c0,0.2,0,0.3,0.1,0.4c0.1,0.1,0.3,0.2,0.5,0.3c0.2,0.1,0.6,0.2,1,0.3c1,0.2,1.7,0.5,2.1,0.9c0.4,0.3,0.7,0.8,0.7,1.4
	c0,0.7-0.3,1.3-0.9,1.7C40.5,68.9,39.7,69.1,38.7,69.1z M44.8,62.6h-2.4v-1.4h6.6v1.4h-2.4V69h-1.7V62.6z M53,69.1
	c-0.8,0-1.4-0.2-2-0.5c-0.6-0.3-1-0.8-1.3-1.4c-0.3-0.6-0.5-1.3-0.5-2.1c0-0.8,0.2-1.5,0.5-2.1c0.3-0.6,0.8-1.1,1.3-1.4
	c0.6-0.3,1.2-0.5,2-0.5c0.8,0,1.4,0.2,2,0.5c0.6,0.3,1,0.8,1.3,1.4c0.3,0.6,0.5,1.3,0.5,2.1c0,0.8-0.2,1.5-0.5,2.1
	c-0.3,0.6-0.7,1.1-1.3,1.4C54.4,68.9,53.7,69.1,53,69.1z M53,67.8c0.7,0,1.2-0.2,1.5-0.7c0.4-0.5,0.6-1.1,0.6-2c0-0.9-0.2-1.5-0.6-2
	c-0.4-0.5-0.9-0.7-1.5-0.7s-1.2,0.2-1.5,0.7c-0.4,0.5-0.5,1.1-0.5,2c0,0.9,0.2,1.5,0.5,2C51.8,67.5,52.3,67.8,53,67.8z M64.6,69
	h-1.8l-1-2.6c-0.1-0.2-0.2-0.3-0.4-0.4c-0.2-0.1-0.4-0.1-0.6-0.1h-1.1V69h-1.7v-7.8h3.5c0.9,0,1.6,0.2,2,0.6c0.5,0.4,0.7,1,0.7,1.7
	c0,0.5-0.1,1-0.4,1.3c-0.3,0.4-0.7,0.6-1.2,0.8c0.5,0.1,0.8,0.4,1,0.9L64.6,69z M61.3,64.6c0.5,0,0.8-0.1,1.1-0.2
	c0.2-0.2,0.3-0.4,0.3-0.8c0-0.3-0.1-0.6-0.3-0.8c-0.2-0.2-0.6-0.3-1.1-0.3h-1.5v2H61.3z M65.8,61.2h5.4v1.3h-3.7v1.8h3.5v1.3h-3.5v2
	h3.7V69h-5.4V61.2z"/>
</svg>
