<?xml version="1.0" encoding="utf-8"?>
<!-- Generator: Adobe Illustrator 24.1.2, SVG Export Plug-In . SVG Version: 6.00 Build 0)  -->
<svg version="1.1" id="Layer_1" xmlns="http://www.w3.org/2000/svg" xmlns:xlink="http://www.w3.org/1999/xlink" x="0px" y="0px"
	 viewBox="0 0 75 60" style="enable-background:new 0 0 75 60;" xml:space="preserve">
<style type="text/css">
	.st0{fill:url(#SVGID_1_);}
	.st1{fill:url(#SVGID_2_);}
	.st2{fill:#2E2B2C;}
</style>
<linearGradient id="SVGID_1_" gradientUnits="userSpaceOnUse" x1="38.5043" y1="32.4333" x2="38.5043" y2="3.507" gradientTransform="matrix(1 0 0 -1 0 62)">
	<stop  offset="0.1594" style="stop-color:#FFBF42"/>
	<stop  offset="1" style="stop-color:#A76D1C"/>
</linearGradient>
<path class="st0" d="M28.1,42.9v-12V19.4h11.5c2,0,3.6,0.3,4.8,1c1.2,0.6,2,1.4,2.6,2.4c0.5,0.9,0.8,1.9,0.8,2.8
	c0,1.5-0.3,2.7-1,3.5c-0.7,0.8-1.5,1.4-2.4,1.8c0.7,0.2,1.4,0.6,2.2,1c0.7,0.4,1.4,1.1,1.9,1.8s0.7,1.8,0.7,2.9
	c0,1.7-0.7,3.2-2.2,4.4c-1.4,1.2-3.6,1.8-6.5,1.8h-6.1H28.1z M31,29.9h8.6c0.9,0,1.7-0.1,2.5-0.4c0.8-0.3,1.4-0.7,1.9-1.3
	c0.5-0.6,0.7-1.4,0.7-2.3c0-0.7-0.2-1.3-0.5-1.9c-0.3-0.6-0.8-1.1-1.5-1.5c-0.7-0.4-1.6-0.6-2.8-0.6H31V29.9z M31,40.3h9.5
	c1.8,0,3.1-0.3,4.1-1c1-0.7,1.5-1.6,1.5-2.9c0-1.1-0.5-2.1-1.4-2.9c-0.9-0.9-2.4-1.3-4.4-1.3H31V40.3z"/>
<linearGradient id="SVGID_2_" gradientUnits="userSpaceOnUse" x1="38.5043" y1="32.4333" x2="38.5043" y2="3.507" gradientTransform="matrix(1 0 0 -1 0 62)">
	<stop  offset="0.1594" style="stop-color:#FFBF42"/>
	<stop  offset="1" style="stop-color:#A76D1C"/>
</linearGradient>
<path class="st1" d="M28.1,42.9v-12V19.4h11.5c2,0,3.6,0.3,4.8,1c1.2,0.6,2,1.4,2.6,2.4c0.5,0.9,0.8,1.9,0.8,2.8
	c0,1.5-0.3,2.7-1,3.5c-0.7,0.8-1.5,1.4-2.4,1.8c0.7,0.2,1.4,0.6,2.2,1c0.7,0.4,1.4,1.1,1.9,1.8s0.7,1.8,0.7,2.9
	c0,1.7-0.7,3.2-2.2,4.4c-1.4,1.2-3.6,1.8-6.5,1.8h-6.1H28.1z M31,29.9h8.6c0.9,0,1.7-0.1,2.5-0.4c0.8-0.3,1.4-0.7,1.9-1.3
	c0.5-0.6,0.7-1.4,0.7-2.3c0-0.7-0.2-1.3-0.5-1.9c-0.3-0.6-0.8-1.1-1.5-1.5c-0.7-0.4-1.6-0.6-2.8-0.6H31V29.9z M31,40.3h9.5
	c1.8,0,3.1-0.3,4.1-1c1-0.7,1.5-1.6,1.5-2.9c0-1.1-0.5-2.1-1.4-2.9c-0.9-0.9-2.4-1.3-4.4-1.3H31V40.3z"/>
<path class="st2" d="M53.6,50.4C41.5,52.7,37.4,60,37.4,60s4.4-3.8,13.4-5.8c9-2,22.4-0.9,22.4-0.9s0-1,0.3-2c0.3-1,0.9-1.7,0.9-1.7
	S65.8,48.2,53.6,50.4z"/>
<path class="st2" d="M20.9,50.4C33,52.7,37.4,60,37.4,60s-4.7-3.8-13.7-5.8c-9-2-22.4-0.9-22.4-0.9s0-1-0.3-2
	c-0.3-1-0.9-1.7-0.9-1.7S8.7,48.2,20.9,50.4z"/>
<path class="st2" d="M37.4,0L4.1,18.3v9.1L10,24v15.4l8.7,2.3V19.4L37.4,9.1l19.3,10.3v22.3l8.7-2.3V24l5.6,3.4v-9.1L37.4,0z"/>
<path class="st2" d="M51.4,45.1c-9,3.4-12.8,10.3-12.8,10.3s4.4-4.6,11.8-6.9C58,46.3,67,45.7,67,45.7s-0.3-0.9-0.3-2
	c0-1.1,0.3-2,0.3-2S60.5,41.7,51.4,45.1z"/>
<path class="st2" d="M23.7,45.1c9,3.4,12.8,10.3,12.8,10.3s-4.4-4.6-11.8-6.9c-7.5-2.3-16.5-2.9-16.5-2.9s0.3-0.6,0.3-2
	c0-1.4-0.3-2-0.3-2S14.7,41.7,23.7,45.1z"/>
</svg>
