<svg id="Layer_1" data-name="Layer 1" xmlns="http://www.w3.org/2000/svg" xmlns:xlink="http://www.w3.org/1999/xlink" viewBox="0 0 74.5 69.1"><defs><style>.cls-1{fill:url(#linear-gradient);}.cls-2{fill:#2e2b2c;}.cls-3{fill:url(#linear-gradient-3);}</style><linearGradient id="linear-gradient" x1="38.5" y1="46.43" x2="38.5" y2="17.51" gradientTransform="matrix(1, 0, 0, -1, 0, 76)" gradientUnits="userSpaceOnUse"><stop offset="0.16" stop-color="#fff"/><stop offset="1" stop-color="#a76d1c"/></linearGradient><linearGradient id="linear-gradient-3" x1="37.45" y1="11" x2="37.45" y2="3" xlink:href="#linear-gradient"/></defs><path class="cls-1" d="M28.07,42.86V19.4H39.55a9.87,9.87,0,0,1,4.75,1,5.92,5.92,0,0,1,2.55,2.41,5.82,5.82,0,0,1,.78,2.83,5.27,5.27,0,0,1-1.05,3.51,6.46,6.46,0,0,1-2.39,1.77,8.17,8.17,0,0,1,2.16,1,5.54,5.54,0,0,1,1.86,1.84,5.76,5.76,0,0,1-1.47,7.34c-1.45,1.18-3.62,1.77-6.53,1.77H28.07Zm2.9-13h8.58a7.31,7.31,0,0,0,2.51-.42A4.39,4.39,0,0,0,44,28.15a3.61,3.61,0,0,0,.74-2.33,3.69,3.69,0,0,0-.51-1.88,3.4,3.4,0,0,0-1.54-1.45,5.93,5.93,0,0,0-2.82-.57H31Zm0,10.45h9.54a7.06,7.06,0,0,0,4.06-1A3.31,3.31,0,0,0,46,36.48a3.79,3.79,0,0,0-1.39-2.91,6.45,6.45,0,0,0-4.44-1.27H31Z" transform="translate(0)"/><path class="cls-1" d="M28.07,42.86V19.4H39.55a9.87,9.87,0,0,1,4.75,1,5.92,5.92,0,0,1,2.55,2.41,5.82,5.82,0,0,1,.78,2.83,5.27,5.27,0,0,1-1.05,3.51,6.46,6.46,0,0,1-2.39,1.77,8.17,8.17,0,0,1,2.16,1,5.54,5.54,0,0,1,1.86,1.84,5.76,5.76,0,0,1-1.47,7.34c-1.45,1.18-3.62,1.77-6.53,1.77H28.07Zm2.9-13h8.58a7.31,7.31,0,0,0,2.51-.42A4.39,4.39,0,0,0,44,28.15a3.61,3.61,0,0,0,.74-2.33,3.69,3.69,0,0,0-.51-1.88,3.4,3.4,0,0,0-1.54-1.45,5.93,5.93,0,0,0-2.82-.57H31Zm0,10.45h9.54a7.06,7.06,0,0,0,4.06-1A3.31,3.31,0,0,0,46,36.48a3.79,3.79,0,0,0-1.39-2.91,6.45,6.45,0,0,0-4.44-1.27H31Z" transform="translate(0)"/><path class="cls-2" d="M53.62,50.44C41.46,52.73,37.41,60,37.41,60s4.36-3.84,13.4-5.84,22.44-.86,22.44-.86a7.64,7.64,0,0,1,.31-2,5.49,5.49,0,0,1,.94-1.72A66.58,66.58,0,0,0,53.62,50.44Z" transform="translate(0)"/><path class="cls-2" d="M20.89,50.44C33,52.73,37.41,60,37.41,60s-4.68-3.85-13.72-5.85S1.25,53.3,1.25,53.3a7.64,7.64,0,0,0-.31-2A5.49,5.49,0,0,0,0,49.58,66.64,66.64,0,0,1,20.89,50.44Z" transform="translate(0)"/><path class="cls-2" d="M37.41,0,4.05,18.29v9.14L10,24V39.43l8.73,2.28V19.43L37.41,9.14,56.73,19.43V41.71l8.73-2.28V24l5.61,3.43V18.29Z" transform="translate(0)"/><path class="cls-2" d="M51.43,45.14A25.45,25.45,0,0,0,38.65,55.43,29.7,29.7,0,0,1,50.5,48.57,85.14,85.14,0,0,1,67,45.71a6.42,6.42,0,0,1-.31-2,6.5,6.5,0,0,1,.31-2A48.56,48.56,0,0,0,51.43,45.14Z" transform="translate(0)"/><path class="cls-2" d="M23.69,45.14A25.45,25.45,0,0,1,36.47,55.43a29.61,29.61,0,0,0-11.84-6.86A85.3,85.3,0,0,0,8.1,45.71a4.47,4.47,0,0,0,.32-2,4.52,4.52,0,0,0-.32-2A48.56,48.56,0,0,1,23.69,45.14Z" transform="translate(0)"/><path class="cls-3" d="M8.76,65a1.92,1.92,0,0,1,1,.69,2.06,2.06,0,0,1-.36,2.75,3.13,3.13,0,0,1-2,.57H3.77V61.24H7.35a3.05,3.05,0,0,1,1.91.54,1.89,1.89,0,0,1,.38,2.54A1.8,1.8,0,0,1,8.76,65ZM5.43,64.4H7.07a1.7,1.7,0,0,0,1-.22.93.93,0,0,0,0-1.4,1.62,1.62,0,0,0-1-.23H5.43Zm1.83,3.29a1.61,1.61,0,0,0,1-.23,1.05,1.05,0,0,0,0-1.51,1.6,1.6,0,0,0-1-.24H5.43v2Zm7.67,1.41a4.11,4.11,0,0,1-2-.48,3.31,3.31,0,0,1-1.32-1.4,4.65,4.65,0,0,1-.46-2.11,4.58,4.58,0,0,1,.46-2.1,3.26,3.26,0,0,1,1.32-1.38,4,4,0,0,1,2-.49,3.88,3.88,0,0,1,2,.49A3.18,3.18,0,0,1,18.24,63a4.46,4.46,0,0,1,.46,2.1,4.53,4.53,0,0,1-.46,2.11,3.23,3.23,0,0,1-1.31,1.4A4,4,0,0,1,14.93,69.1Zm0-1.33a1.82,1.82,0,0,0,1.52-.69,3.06,3.06,0,0,0,.56-2,3,3,0,0,0-.56-2,1.84,1.84,0,0,0-1.52-.68,1.88,1.88,0,0,0-1.54.68,3.07,3.07,0,0,0-.54,2,3.15,3.15,0,0,0,.54,2A1.88,1.88,0,0,0,14.93,67.77Zm8.66,1.33a4,4,0,0,1-2-.48,3.31,3.31,0,0,1-1.32-1.4,4.53,4.53,0,0,1-.46-2.11,4.46,4.46,0,0,1,.46-2.1,3.26,3.26,0,0,1,1.32-1.38,4.37,4.37,0,0,1,4,0A3.3,3.3,0,0,1,26.91,63a4.58,4.58,0,0,1,.45,2.1,4.65,4.65,0,0,1-.45,2.11,3.35,3.35,0,0,1-1.31,1.4A4,4,0,0,1,23.59,69.1Zm0-1.33a1.83,1.83,0,0,0,1.53-.69,3.06,3.06,0,0,0,.55-2,3,3,0,0,0-.55-2,1.85,1.85,0,0,0-1.53-.68,1.88,1.88,0,0,0-1.53.68,3,3,0,0,0-.55,2,3.09,3.09,0,0,0,.55,2A1.88,1.88,0,0,0,23.59,67.77ZM33.77,69l-3.38-3.59V69h-1.7V61.24h1.7v3.41l3.26-3.41h2L32.07,65l3.75,4Zm4.93.1a6.34,6.34,0,0,1-1.7-.23,3.74,3.74,0,0,1-1.34-.67L36.2,67a4.25,4.25,0,0,0,2.51.79,2.3,2.3,0,0,0,1.13-.23.75.75,0,0,0,.41-.67.64.64,0,0,0-.37-.57,4.36,4.36,0,0,0-1.28-.42,6.89,6.89,0,0,1-1.63-.5,2.29,2.29,0,0,1-.89-.73,2,2,0,0,1-.27-1.08,2.19,2.19,0,0,1,.38-1.25,2.54,2.54,0,0,1,1.09-.86,3.89,3.89,0,0,1,1.61-.32,5.3,5.3,0,0,1,1.6.24,3.44,3.44,0,0,1,1.22.65l-.55,1.23a3.57,3.57,0,0,0-2.25-.79,1.9,1.9,0,0,0-1,.26.82.82,0,0,0-.39.71.65.65,0,0,0,.14.44,1.34,1.34,0,0,0,.5.31,5.67,5.67,0,0,0,1,.26,5.54,5.54,0,0,1,2.15.85,1.73,1.73,0,0,1,.66,1.43,2.06,2.06,0,0,1-.85,1.74A3.87,3.87,0,0,1,38.7,69.1Zm6.08-6.48H42.35V61.24h6.58v1.38H46.5V69H44.78ZM53,69.1a4.11,4.11,0,0,1-2-.48,3.43,3.43,0,0,1-1.32-1.4,4.65,4.65,0,0,1-.45-2.11,4.58,4.58,0,0,1,.45-2.1,3.38,3.38,0,0,1,1.32-1.38,4,4,0,0,1,2-.49,3.94,3.94,0,0,1,2,.49A3.21,3.21,0,0,1,56.26,63a4.46,4.46,0,0,1,.46,2.1,4.53,4.53,0,0,1-.46,2.11,3.26,3.26,0,0,1-1.3,1.4A4,4,0,0,1,53,69.1Zm0-1.33a1.86,1.86,0,0,0,1.53-.69,3.06,3.06,0,0,0,.55-2,3,3,0,0,0-.55-2A1.88,1.88,0,0,0,53,62.47a1.9,1.9,0,0,0-1.54.68,3.07,3.07,0,0,0-.54,2,3.15,3.15,0,0,0,.54,2A1.9,1.9,0,0,0,53,67.77ZM64.6,69H62.8l-1-2.58a.73.73,0,0,0-.37-.43,1.35,1.35,0,0,0-.61-.12h-1.1V69H58.05V61.24h3.46a3.08,3.08,0,0,1,2,.59,2.06,2.06,0,0,1,.7,1.69,2.11,2.11,0,0,1-1.58,2.12,1.35,1.35,0,0,1,1,1Zm-3.34-4.43a1.84,1.84,0,0,0,1.06-.24.87.87,0,0,0,.34-.77.85.85,0,0,0-.34-.76,1.76,1.76,0,0,0-1.06-.25H59.71v2Zm4.51-3.33h5.35v1.32h-3.7v1.83h3.47v1.33H67.42v2h3.7V69H65.77Z" transform="translate(0)"/></svg>